<svg width="100" height="100" viewBox="0 0 100 100" fill="none" xmlns="http://www.w3.org/2000/svg">
<rect x="0.5" y="0.5" width="99" height="99" rx="15.5" fill="white" stroke="#FF5069" stroke-dasharray="4 4"/>
<path d="M50 35C47.0333 35 44.1332 35.8797 41.6665 37.528C39.1997 39.1762 37.2771 41.5189 36.1418 44.2597C35.0065 47.0006 34.7094 50.0166 35.2882 52.9263C35.867 55.8361 37.2956 58.5088 39.3934 60.6066C41.4912 62.7044 44.1639 64.133 47.0736 64.7118C49.9834 65.2905 52.9994 64.9935 55.7403 63.8582C58.4811 62.7229 60.8238 60.8003 62.472 58.3335C64.1203 55.8668 65 52.9667 65 50C64.9953 46.0232 63.4134 42.2106 60.6014 39.3986C57.7894 36.5866 53.9768 35.0047 50 35ZM56.8182 51.3636H51.3636V56.8182C51.3636 57.1798 51.22 57.5267 50.9642 57.7824C50.7085 58.0381 50.3617 58.1818 50 58.1818C49.6383 58.1818 49.2915 58.0381 49.0358 57.7824C48.78 57.5267 48.6364 57.1798 48.6364 56.8182V51.3636H43.1818C42.8202 51.3636 42.4733 51.22 42.2176 50.9642C41.9619 50.7085 41.8182 50.3617 41.8182 50C41.8182 49.6383 41.9619 49.2915 42.2176 49.0358C42.4733 48.78 42.8202 48.6364 43.1818 48.6364H48.6364V43.1818C48.6364 42.8202 48.78 42.4733 49.0358 42.2176C49.2915 41.9618 49.6383 41.8182 50 41.8182C50.3617 41.8182 50.7085 41.9618 50.9642 42.2176C51.22 42.4733 51.3636 42.8202 51.3636 43.1818V48.6364H56.8182C57.1798 48.6364 57.5267 48.78 57.7824 49.0358C58.0382 49.2915 58.1818 49.6383 58.1818 50C58.1818 50.3617 58.0382 50.7085 57.7824 50.9642C57.5267 51.22 57.1798 51.3636 56.8182 51.3636Z" fill="#FF5069"/>
</svg>
