<svg width="115" height="37" viewBox="0 0 115 37" fill="none" xmlns="http://www.w3.org/2000/svg">
<path d="M34.5377 8.78573L32.0201 8.15487L32.5082 8.77077L31.0141 8.98521C30.9295 8.87799 30.7676 8.82562 30.5783 8.81066C30.5709 8.79321 30.5634 8.77575 30.5584 8.76079C30.3443 8.27456 30.0803 7.82323 29.8014 7.39185C29.2387 6.5291 28.5788 5.77356 27.9164 5.05044C27.5852 4.68888 27.2515 4.3373 26.9303 3.97823C26.6091 3.62166 26.2978 3.25761 26.0339 2.87111C25.8969 2.67911 25.7848 2.47464 25.6803 2.26768L25.6155 2.1081L25.5831 2.02831L25.5582 1.94602L25.5084 1.77895L25.4786 1.6094C25.3989 1.15059 25.5333 0.666848 25.7824 0.250431C25.6354 0.442432 25.491 0.6469 25.4088 0.883784C25.3565 0.998485 25.3316 1.12067 25.3018 1.24534C25.2868 1.30768 25.2868 1.37002 25.2794 1.43485C25.2719 1.49719 25.2669 1.56202 25.2694 1.62685L25.2744 1.81885L25.3018 2.00836C25.3018 2.02332 25.3067 2.03579 25.3092 2.05075L20.568 8.76827C20.4734 8.77326 20.3813 8.77825 20.2916 8.78573C20.5431 8.60619 20.3638 8.15736 20.6203 8.06759C20.8868 7.97533 20.7075 7.65866 20.7075 7.65866C20.8718 7.61377 20.6228 7.15248 20.6228 7.15248C20.9938 7.12006 21.4595 6.71112 21.2279 6.63881C20.9963 6.56899 20.4759 5.72619 20.6801 5.07787C20.8843 4.42956 20.5381 3.87351 20.5381 3.87351C21.3898 4.26 21.5541 3.45709 21.5541 3.45709C20.8295 3.80618 20.5157 3.3773 20.5157 3.3773C21.1806 3.32743 21.1557 2.89854 21.0387 2.40732C20.9216 1.9161 20.329 1.99838 20.329 1.99838C20.329 1.99838 20.3041 1.5695 20.0053 1.12316C19.7064 0.676822 19.2308 0.998485 19.2308 0.998485C19.2308 0.998485 19.1611 0.305289 18.4166 0.0634178C17.672 -0.178453 17.3533 0.405029 17.3533 0.405029C17.3533 0.405029 16.4643 -0.308116 15.4234 0.158171C14.3825 0.624458 14.4722 1.44233 14.4722 1.44233C13.0429 1.31765 13.0653 2.48462 13.0653 2.48462C12.6345 2.95839 13.1898 3.40971 13.1898 3.40971C13.1898 3.40971 12.5 3.30249 12.4054 4.26499C12.3108 5.22748 12.9084 5.3347 12.9084 5.3347C12.4303 6.20245 13.2719 6.53907 13.2719 6.53907C13.1748 7.85315 14.2605 7.70604 14.2605 7.70604C14.4249 7.98032 14.278 8.3743 14.2232 8.50146C13.0379 7.92048 11.4168 6.51164 10.7146 4.56421C10.0447 2.70903 7.81358 3.92836 5.46788 7.17242C4.99476 7.82572 5.70942 8.64858 6.31204 8.23965C6.05306 8.59871 5.79409 8.99518 5.53262 9.42656C5.12922 10.0973 5.94101 10.8404 6.46891 10.2818L7.11137 9.6036L6.76773 10.217C6.40915 10.8553 7.13129 11.5585 7.66916 11.0947L8.2643 10.5835L8.07505 11.0723C7.81109 11.758 8.61042 12.334 9.08355 11.7979L9.28525 11.5685C9.21802 12.2617 10.0422 12.5908 10.4033 12.0148L10.5303 11.8104L10.5029 12.2617C10.473 12.7355 10.864 13.0347 11.2251 12.9673C11.2101 13.087 11.2101 13.2067 11.23 13.3264C11.2873 13.6605 11.4791 13.9448 11.7604 14.1617C11.7355 14.2615 11.7156 14.3587 11.7032 14.451C11.4268 16.4184 9.85798 16.563 9.15576 17.705C8.72497 18.4032 8.45604 19.3158 8.87687 20.2434C8.32406 20.9092 7.76129 21.8143 7.8086 22.692C7.8086 22.692 7.67912 22.0363 6.58595 21.5475C5.49278 21.0563 4.68847 21.8617 4.09084 21.0962C3.4957 20.3307 2.75115 20.4953 2.39506 21.1635C2.03897 21.8318 0.226158 22.3878 0.325764 22.9888C0.325764 22.9888 -0.187203 23.2356 0.0742605 23.5573C0.335724 23.879 0.741615 23.5124 0.741615 23.5124C0.741615 23.5124 0.756556 24.253 1.31435 24.1433C1.87213 24.0336 2.70882 22.8466 3.73724 23.2631C4.76815 23.6795 6.8001 26.8537 8.42366 26.7565C9.85549 26.6717 12.4502 23.8116 13.0802 22.6746C13.501 23.6022 14.3726 25.1631 15.6276 25.5621C15.6276 25.5621 14.8831 25.4349 13.9269 26.3949C12.9706 27.3549 13.4961 28.5319 12.4477 28.856C11.3994 29.1802 11.2749 30.0329 11.8351 30.6788C12.3979 31.3246 12.256 33.4665 12.9283 33.6062C12.9283 33.6062 12.9831 34.2495 13.4288 34.0999C13.8746 33.9527 13.648 33.3743 13.648 33.3743C13.648 33.3743 14.4373 33.656 14.5469 33.0227C14.6565 32.3893 13.7376 31.0254 14.5917 30.1003C15.4458 29.1752 19.6168 28.3025 20.1671 26.5445C20.7174 24.7866 18.1053 20.009 17.413 19.6799C19.4649 18.291 19.689 14.643 19.689 14.643C20.1024 14.2665 20.3539 13.7428 20.4933 13.1668L28.4916 20.4005C28.4916 20.4928 28.4916 20.5825 28.4916 20.6748L28.5091 20.8668C28.514 20.9291 28.5215 20.994 28.5364 21.0563L28.5738 21.2433L28.6311 21.4278C28.6485 21.4902 28.6759 21.5475 28.7033 21.6049C28.7307 21.6622 28.7531 21.7221 28.7879 21.7744C28.8577 21.8817 28.9199 21.9889 29.0071 22.0811C29.164 22.2756 29.3681 22.4203 29.5698 22.5549C29.1963 22.2432 28.9125 21.8293 28.8353 21.373L28.8079 21.2034L28.8004 21.0289V20.8568L28.8104 20.6848C28.8402 20.4529 28.8776 20.2235 28.9448 19.9966C29.0668 19.5427 29.2411 19.0989 29.4254 18.6551C29.6122 18.2112 29.8089 17.7674 30.0031 17.316C30.3891 16.4159 30.7626 15.4833 31.0091 14.4834C31.1312 13.9847 31.2308 13.4685 31.2706 12.9399C31.308 12.4911 31.3104 12.0348 31.2806 11.5735C31.6118 11.0972 31.3876 10.1921 31.2108 9.57118L32.6003 9.3717L32.3065 10.1023L34.5426 8.78822L34.5377 8.78573ZM14.6565 7.36941C15.274 7.87809 14.9204 8.68599 14.9204 8.68599C14.9204 8.68599 14.903 8.70843 14.8756 8.74583C14.6938 8.70095 14.4871 8.62614 14.263 8.51892C14.908 8.29949 14.6565 7.36941 14.6565 7.36941ZM25.3366 2.21033L25.379 2.38239C25.4562 2.62426 25.5483 2.86363 25.6628 3.08805C25.8845 3.54187 26.1534 3.96327 26.4248 4.37221C26.6987 4.78114 26.9801 5.1826 27.2515 5.58156C27.7969 6.37949 28.3074 7.1824 28.6933 8.01772C28.8004 8.24962 28.8975 8.48401 28.9847 8.7184C28.3771 8.89793 28.016 9.28692 27.894 9.44152L27.6026 9.48391C27.01 9.36921 26.1932 8.84308 25.4263 8.71092C24.5473 8.55882 22.9361 9.13482 22.9361 9.13482C22.1343 8.8356 21.3599 8.7558 20.7125 8.76578L25.3366 2.21532V2.21033ZM29.789 12.9075C29.8189 13.3513 29.7989 13.8052 29.7566 14.2615C29.6695 15.1766 29.4503 16.1042 29.2013 17.0368C29.0768 17.503 28.9423 17.9743 28.8203 18.4506C28.6983 18.9293 28.5862 19.4156 28.524 19.9143C28.5091 20.0215 28.5016 20.1312 28.4941 20.2409L20.5232 13.0297C20.5406 12.9474 20.5556 12.8651 20.5705 12.7803C21.7483 12.7878 23.0606 12.3265 23.5238 12.1445C24.0891 11.9226 24.3929 12.3739 25.2669 12.3465C26.1409 12.319 28.0783 11.4438 28.0783 11.4438C28.4592 11.7405 29.0295 11.9375 29.6695 11.9724C29.7267 12.2766 29.7666 12.5883 29.7865 12.9025L29.789 12.9075Z" fill="#FF5069"/>
<path d="M106.493 26.5525C106.679 26.5804 106.847 26.6037 106.996 26.6224C107.136 26.6317 107.262 26.641 107.374 26.6504C107.495 26.6597 107.612 26.6644 107.724 26.6644C107.826 26.6644 107.957 26.6597 108.115 26.6504C108.246 26.641 108.414 26.6317 108.619 26.6224C108.833 26.6037 109.085 26.5804 109.374 26.5525C109.355 26.5898 109.318 26.7063 109.262 26.9021C109.206 27.0886 109.15 27.3217 109.094 27.6015C109.038 27.8719 108.987 28.1749 108.94 28.5106C108.903 28.8369 108.884 29.1633 108.884 29.4897C108.894 29.8067 108.936 30.1097 109.01 30.3988C109.085 30.6785 109.206 30.907 109.374 31.0841C109.728 31.4478 110.041 31.6669 110.311 31.7415C110.591 31.8161 110.833 31.8068 111.038 31.7135C111.243 31.6203 111.411 31.4804 111.542 31.2939C111.672 31.1074 111.766 30.9349 111.822 30.7764C111.961 30.3475 112.045 29.8953 112.073 29.4197C112.092 29.0094 112.059 28.5526 111.975 28.049C111.892 27.5455 111.691 27.0327 111.374 26.5105C111.616 26.5291 111.826 26.5431 112.003 26.5525C112.181 26.5618 112.334 26.5711 112.465 26.5804C112.614 26.5898 112.745 26.5991 112.857 26.6084C112.959 26.6177 113.08 26.6177 113.22 26.6084C113.341 26.6084 113.486 26.6037 113.654 26.5944C113.831 26.5758 114.027 26.5571 114.241 26.5385C114.279 27.4523 114.311 28.2682 114.339 28.9861C114.367 29.6948 114.386 30.3242 114.395 30.8743C114.414 31.4152 114.423 31.886 114.423 32.287C114.423 32.6786 114.423 33.0096 114.423 33.28C114.414 33.9234 114.386 34.3477 114.339 34.5528C114.265 34.8419 114.129 35.1309 113.934 35.42C113.747 35.7091 113.509 35.9655 113.22 36.1893C112.931 36.4224 112.596 36.5995 112.213 36.7208C111.84 36.8513 111.43 36.8979 110.982 36.8606C110.544 36.8233 110.194 36.7627 109.933 36.6788C109.682 36.6042 109.481 36.5156 109.332 36.4131C109.192 36.3105 109.09 36.2033 109.024 36.0914C108.968 35.9795 108.926 35.8629 108.898 35.7417C108.87 35.6298 108.842 35.5226 108.814 35.42C108.786 35.3174 108.731 35.2289 108.647 35.1543C108.544 35.0703 108.437 34.9864 108.325 34.9025C108.222 34.8279 108.11 34.7533 107.989 34.6787C107.877 34.6041 107.765 34.5435 107.654 34.4969L110.633 34.329C110.549 34.4409 110.488 34.5435 110.451 34.6368C110.414 34.73 110.39 34.8093 110.381 34.8745C110.372 34.9584 110.376 35.0284 110.395 35.0843C110.432 35.1962 110.498 35.3174 110.591 35.448C110.693 35.5878 110.824 35.6951 110.982 35.7697C111.141 35.8536 111.327 35.8816 111.542 35.8536C111.766 35.8256 112.017 35.7091 112.297 35.5039C112.53 35.3268 112.726 35.0424 112.885 34.6507C113.015 34.3151 113.118 33.8442 113.192 33.2381C113.267 32.632 113.253 31.8348 113.15 30.8464C112.982 31.4245 112.754 31.8674 112.465 32.1751C112.176 32.4828 111.887 32.7066 111.598 32.8465C111.262 33.0143 110.912 33.1029 110.549 33.1122C110.064 33.0936 109.649 33.0329 109.304 32.9304C108.959 32.8185 108.675 32.6693 108.451 32.4828C108.227 32.2963 108.05 32.0772 107.919 31.8254C107.798 31.5643 107.71 31.2753 107.654 30.9583C107.598 30.6412 107.57 30.3242 107.57 30.0072C107.57 29.6808 107.57 29.3778 107.57 29.098C107.579 28.8183 107.584 28.5665 107.584 28.3428C107.584 28.1096 107.56 27.9232 107.514 27.7833C107.458 27.6434 107.383 27.5036 107.29 27.3637C107.215 27.2425 107.113 27.1119 106.982 26.9721C106.842 26.8229 106.679 26.683 106.493 26.5525Z" fill="#444444"/>
<path d="M99.2476 32.1611C99.3129 31.8534 99.3595 31.583 99.3875 31.3499C99.4248 31.1074 99.4528 30.907 99.4714 30.7484C99.4901 30.562 99.4994 30.4034 99.4994 30.2729C99.4901 30.1144 99.4807 29.9279 99.4714 29.7134C99.4714 29.4896 99.4621 29.2705 99.4434 29.0561C99.4341 28.8323 99.4201 28.6365 99.4015 28.4686C99.3828 28.2915 99.3595 28.1656 99.3316 28.091C99.2943 28.0164 99.243 27.9371 99.1777 27.8532C99.0472 27.6947 98.856 27.5408 98.6042 27.3916C98.8187 27.345 99.0005 27.3077 99.1497 27.2798C99.3082 27.2425 99.4388 27.2098 99.5414 27.1818C99.6532 27.1446 99.7512 27.1119 99.8351 27.0839C99.9097 27.056 99.9983 27.028 100.101 27C100.185 26.9814 100.287 26.9581 100.409 26.9301C100.53 26.9021 100.67 26.8695 100.828 26.8322L100.786 28.105C101.085 27.7506 101.388 27.4849 101.695 27.3077C102.003 27.1306 102.292 27.0047 102.562 26.9301C102.87 26.8368 103.173 26.7902 103.472 26.7902C103.845 26.8089 104.19 26.8695 104.507 26.972C104.833 27.0746 105.113 27.1958 105.346 27.3357C105.588 27.4662 105.784 27.6061 105.933 27.7553C106.082 27.9045 106.171 28.035 106.199 28.1469C106.311 28.5106 106.339 28.8463 106.283 29.154C106.227 29.4524 106.152 29.7461 106.059 30.0351C105.975 30.3149 105.901 30.5946 105.835 30.8743C105.779 31.1541 105.803 31.4571 105.905 31.7835C105.943 31.8674 105.98 31.9513 106.017 32.0352C106.054 32.1098 106.101 32.1844 106.157 32.259C106.213 32.3336 106.278 32.3942 106.353 32.4408C106.25 32.4315 106.148 32.4268 106.045 32.4268C105.943 32.4175 105.849 32.4082 105.765 32.3989C105.663 32.3896 105.57 32.3802 105.486 32.3709C105.392 32.3616 105.267 32.3569 105.108 32.3569C104.838 32.3569 104.418 32.3709 103.849 32.3989C103.933 32.2031 103.998 32.0399 104.045 31.9093C104.101 31.7695 104.148 31.6576 104.185 31.5737C104.222 31.4711 104.25 31.3918 104.269 31.3359C104.381 31.0655 104.446 30.7578 104.465 30.4128C104.493 30.0678 104.469 29.7181 104.395 29.3638C104.367 29.2426 104.32 29.098 104.255 28.9302C104.19 28.7623 104.101 28.5992 103.989 28.4406C103.887 28.2821 103.761 28.1469 103.611 28.035C103.472 27.9231 103.308 27.8579 103.122 27.8392C102.935 27.8206 102.726 27.8672 102.493 27.9791C102.269 28.091 102.026 28.2961 101.765 28.5945C101.569 28.8463 101.416 29.154 101.304 29.5176C101.201 29.8253 101.131 30.2123 101.094 30.6785C101.057 31.1354 101.113 31.6716 101.262 32.287C101.131 32.2683 101.01 32.259 100.898 32.259C100.786 32.2497 100.693 32.2404 100.618 32.231C100.525 32.2217 100.441 32.2124 100.367 32.2031C100.283 32.2031 100.189 32.1984 100.087 32.1891C99.9936 32.1891 99.877 32.1891 99.7372 32.1891C99.5973 32.1798 99.4341 32.1704 99.2476 32.1611Z" fill="#444444"/>
<path d="M94.9397 27.4336C95.1821 27.4336 95.4339 27.4802 95.695 27.5735C95.9561 27.6574 96.2078 27.7693 96.4503 27.9092C96.6927 28.0397 96.9118 28.1842 97.1076 28.3428C97.3128 28.4919 97.4806 28.6365 97.6112 28.7763C97.8443 29.0281 98.0028 29.3684 98.0867 29.7974C98.1799 30.217 98.1986 30.6506 98.1426 31.0981C98.0867 31.5364 97.9562 31.9513 97.751 32.3429C97.5459 32.7346 97.2615 33.0236 96.8978 33.2101C96.6367 33.3407 96.3803 33.4432 96.1286 33.5178C95.8768 33.5924 95.6344 33.6484 95.4013 33.6857C95.1681 33.723 94.949 33.7416 94.7439 33.7416C94.5387 33.7416 94.3616 33.7369 94.2124 33.7276C93.9327 33.709 93.6389 33.6111 93.3312 33.4339C93.0329 33.2567 92.7485 33.0376 92.478 32.7765C92.217 32.5154 91.9932 32.2311 91.8067 31.9233C91.6202 31.6063 91.5083 31.3079 91.471 31.0282C91.4151 30.6459 91.4057 30.2449 91.443 29.8253C91.4803 29.4057 91.6155 29.0188 91.8486 28.6645C92.0911 28.3101 92.4547 28.0164 92.9396 27.7833C93.4338 27.5502 94.1005 27.4336 94.9397 27.4336ZM94.4781 32.8605C94.5807 32.8791 94.7206 32.8558 94.8977 32.7905C95.0749 32.7159 95.2474 32.5994 95.4152 32.4409C95.5924 32.2823 95.7463 32.0819 95.8768 31.8394C96.0167 31.5877 96.1006 31.2846 96.1286 30.9303C96.1565 30.5853 96.1565 30.2683 96.1286 29.9792C96.1099 29.6901 96.068 29.4384 96.0027 29.2239C95.9374 29.0001 95.8628 28.8183 95.7789 28.6784C95.695 28.5386 95.6064 28.4407 95.5132 28.3847C95.3546 28.3008 95.1635 28.2355 94.9397 28.1889C94.7159 28.133 94.5248 28.1423 94.3662 28.2169C94.2917 28.2542 94.1984 28.3334 94.0865 28.4547C93.9746 28.5759 93.8627 28.7297 93.7508 28.9162C93.6389 29.0934 93.5364 29.2985 93.4431 29.5316C93.3592 29.7647 93.2986 30.0072 93.2613 30.2589C93.224 30.5107 93.2147 30.7811 93.2333 31.0702C93.2613 31.3592 93.3219 31.6343 93.4152 31.8954C93.5084 32.1471 93.6389 32.3663 93.8068 32.5527C93.9839 32.7299 94.2077 32.8325 94.4781 32.8605Z" fill="#444444"/>
<path d="M78.7571 27.07C78.9715 27.0513 79.1534 27.0327 79.3026 27.014C79.4611 26.9954 79.5916 26.9767 79.6942 26.9581C79.8154 26.9394 79.918 26.9208 80.0019 26.9021C80.0858 26.8928 80.1791 26.8741 80.2816 26.8462C80.3749 26.8275 80.4774 26.8042 80.5893 26.7762C80.7106 26.7389 80.8411 26.697 80.981 26.6504L80.897 28.4267C81.1022 28.1003 81.34 27.8532 81.6104 27.6854C81.8808 27.5082 82.1372 27.3777 82.3796 27.2937C82.6687 27.1912 82.9577 27.1306 83.2468 27.1119C83.5452 27.1212 83.8203 27.1679 84.072 27.2518C84.2865 27.3264 84.5009 27.4429 84.7154 27.6015C84.9392 27.76 85.1117 27.9931 85.2329 28.3008C85.5499 27.9744 85.8623 27.7227 86.17 27.5455C86.487 27.359 86.7668 27.2192 87.0092 27.1259C87.2983 27.0233 87.5687 26.9627 87.8204 26.9441C88.1561 26.9348 88.4638 26.9907 88.7436 27.1119C89.0326 27.2331 89.2844 27.387 89.4988 27.5735C89.7133 27.7506 89.8858 27.9418 90.0163 28.1469C90.1469 28.3427 90.2215 28.5152 90.2401 28.6644C90.2681 28.8696 90.2541 29.1353 90.1982 29.4617C90.1422 29.7787 90.077 30.1051 90.0024 30.4407C89.9278 30.7671 89.8578 31.0701 89.7926 31.3499C89.7366 31.6203 89.7133 31.8114 89.7226 31.9233C89.7506 32.0166 89.8159 32.1285 89.9184 32.259C90.0117 32.3709 90.1469 32.5108 90.3241 32.6786C90.5105 32.8371 90.7763 33.0236 91.1213 33.2381C90.8229 33.2288 90.5572 33.2194 90.3241 33.2101C90.1003 33.2008 89.9091 33.1868 89.7506 33.1681C89.5641 33.1495 89.4009 33.1355 89.2611 33.1262C89.1492 33.1262 89.014 33.1169 88.8555 33.0982C88.7249 33.0889 88.5524 33.0749 88.3379 33.0563C88.1328 33.0376 87.895 33.019 87.6246 33.0003C87.7272 32.9723 87.8111 32.921 87.8764 32.8465C87.9417 32.7625 87.9976 32.6833 88.0442 32.6087C88.0908 32.5154 88.1281 32.4129 88.1561 32.301C88.1748 32.2077 88.1934 32.0585 88.2121 31.8534C88.2307 31.6483 88.2447 31.4152 88.254 31.1541C88.2727 30.893 88.282 30.6179 88.282 30.3289C88.2913 30.0398 88.2913 29.7647 88.282 29.5036C88.2727 29.2426 88.254 29.0048 88.2261 28.7903C88.1981 28.5759 88.1608 28.4127 88.1142 28.3008C88.0769 28.2169 88.0116 28.1516 87.9183 28.105C87.8251 28.049 87.7179 28.0164 87.5967 28.0071C87.4754 27.9884 87.3542 27.9931 87.233 28.0211C87.1118 28.0397 87.0045 28.077 86.9113 28.1329C86.8274 28.1982 86.7155 28.2868 86.5756 28.3987C86.4544 28.5013 86.2959 28.6411 86.1001 28.8183C85.9043 28.9955 85.6572 29.2192 85.3588 29.4897C85.3308 30.0771 85.3075 30.5526 85.2889 30.9163C85.2795 31.2706 85.2702 31.541 85.2609 31.7275C85.2516 31.9513 85.2469 32.1052 85.2469 32.1891C85.2376 32.2637 85.2422 32.3336 85.2609 32.3989C85.2795 32.5387 85.3355 32.6693 85.4287 32.7905C85.3168 32.7625 85.1956 32.7439 85.0651 32.7346C84.9438 32.7252 84.832 32.7159 84.7294 32.7066C84.6082 32.6973 84.487 32.6926 84.3657 32.6926C84.2632 32.6926 84.1513 32.6973 84.0301 32.7066C83.9275 32.7159 83.8016 32.7299 83.6524 32.7485C83.5032 32.7579 83.34 32.7719 83.1629 32.7905C83.2375 32.7439 83.2981 32.6879 83.3447 32.6227C83.3913 32.5574 83.4286 32.4968 83.4566 32.4408C83.4939 32.3756 83.5219 32.315 83.5405 32.259C83.5498 32.2031 83.5685 32.0679 83.5965 31.8534C83.6244 31.6296 83.6431 31.3685 83.6524 31.0701C83.6617 30.7718 83.6617 30.4594 83.6524 30.133C83.6431 29.7974 83.6105 29.4943 83.5545 29.2239C83.4986 28.9442 83.41 28.7157 83.2888 28.5386C83.1769 28.3614 83.0277 28.2821 82.8412 28.3008C82.6174 28.3194 82.389 28.3754 82.1558 28.4686C81.96 28.5432 81.7502 28.6551 81.5264 28.8043C81.3027 28.9535 81.0929 29.154 80.897 29.4057C80.8597 30.1051 80.8364 30.6599 80.8271 31.0701C80.8271 31.4804 80.8318 31.7928 80.8411 32.0073C80.8504 32.259 80.8597 32.4315 80.8691 32.5248C80.8784 32.59 80.9017 32.6553 80.939 32.7206C80.967 32.7765 80.9996 32.8418 81.0369 32.9164C81.0835 32.991 81.1348 33.0609 81.1908 33.1262L78.9669 33.0143C79.0415 32.977 79.1067 32.9304 79.1627 32.8744C79.2186 32.8092 79.2653 32.7439 79.3026 32.6786C79.3399 32.604 79.3772 32.5294 79.4145 32.4548C79.4424 32.3896 79.4657 32.2357 79.4844 31.9933C79.5124 31.7508 79.5357 31.4664 79.5543 31.1401C79.573 30.8044 79.587 30.4547 79.5963 30.0911C79.6149 29.7181 79.6243 29.3731 79.6243 29.0561C79.6336 28.7297 79.6382 28.4546 79.6382 28.2309C79.6382 27.9977 79.6336 27.8579 79.6243 27.8113C79.5963 27.718 79.545 27.6201 79.4704 27.5175C79.4051 27.4429 79.3165 27.3637 79.2047 27.2798C79.0928 27.1865 78.9436 27.1166 78.7571 27.07Z" fill="#444444"/>
<path d="M75.4004 27.4476L77.9739 27.4756C77.8247 28.0444 77.7129 28.5293 77.6383 28.9302C77.573 29.3312 77.531 29.6668 77.5124 29.9372C77.4751 30.245 77.4658 30.506 77.4844 30.7205C77.5124 30.9163 77.559 31.1261 77.6243 31.3499C77.6802 31.5364 77.7641 31.7508 77.876 31.9933C77.9879 32.2357 78.1371 32.4782 78.3236 32.7206C78.2117 32.6833 78.0905 32.6553 77.9599 32.6367C77.8294 32.618 77.7082 32.604 77.5963 32.5947C77.4658 32.5854 77.3352 32.5854 77.2047 32.5947C77.0741 32.604 76.9296 32.618 76.7711 32.6367C76.6405 32.6553 76.482 32.6786 76.2955 32.7066C76.109 32.7346 75.9132 32.7719 75.7081 32.8185C75.848 32.3989 75.9552 32.0352 76.0298 31.7275C76.1137 31.4198 76.1743 31.1634 76.2116 30.9583C76.2489 30.7158 76.2722 30.52 76.2816 30.3708C76.2816 30.1843 76.2816 29.9745 76.2816 29.7414C76.2816 29.499 76.2816 29.2659 76.2816 29.0421C76.2816 28.8183 76.2769 28.6225 76.2676 28.4547C76.2582 28.2775 76.2396 28.1656 76.2116 28.119L76.0718 27.9791C76.0158 27.9325 75.9319 27.8672 75.82 27.7833C75.7174 27.6901 75.5776 27.5782 75.4004 27.4476ZM76.3934 25.2937C76.5893 25.1911 76.7851 25.1631 76.9809 25.2098C77.186 25.2564 77.3445 25.345 77.4564 25.4755C77.5683 25.606 77.6056 25.7599 77.5683 25.9371C77.5404 26.1142 77.3912 26.2867 77.1208 26.4546C76.8503 26.6131 76.6126 26.669 76.4074 26.6224C76.2023 26.5758 76.0578 26.4779 75.9738 26.3287C75.8899 26.1795 75.8759 26.007 75.9319 25.8112C75.9878 25.606 76.1417 25.4335 76.3934 25.2937Z" fill="#444444"/>
<path d="M68.407 27C68.5841 27.0094 68.7427 27.014 68.8825 27.014C69.0317 27.0047 69.1576 26.9954 69.2602 26.986C69.3814 26.9767 69.4886 26.9674 69.5819 26.9581C69.7217 26.9394 69.8663 26.9161 70.0154 26.8881C70.146 26.8695 70.2812 26.8462 70.4211 26.8182C70.5703 26.7809 70.7148 26.7389 70.8546 26.6923C70.7987 26.8322 70.7521 26.9534 70.7148 27.056C70.6775 27.1585 70.6495 27.2471 70.6309 27.3217C70.6029 27.4056 70.5889 27.4756 70.5889 27.5315C70.5796 27.5968 70.5749 27.6761 70.5749 27.7693C70.5656 27.9278 70.5656 28.1842 70.5749 28.5386C71.0598 28.119 71.4654 27.7926 71.7918 27.5595C72.1274 27.3264 72.3932 27.1446 72.589 27.014C72.8221 26.8648 73.0039 26.7669 73.1345 26.7203C73.4795 26.6643 73.7825 26.7436 74.0436 26.9581C74.1555 27.0513 74.2627 27.1772 74.3653 27.3357C74.4679 27.4849 74.5565 27.6854 74.631 27.9371C74.7056 28.1889 74.7616 28.4919 74.7989 28.8463C74.8362 29.1913 74.8408 29.6062 74.8129 30.0911C74.6171 30.1097 74.4399 30.1284 74.2814 30.147C74.1322 30.1657 74.0063 30.1797 73.9037 30.189C73.7825 30.2076 73.6706 30.217 73.5681 30.217L73.1904 30.2589C73.0599 30.2776 72.8967 30.2962 72.7009 30.3149C72.5144 30.3242 72.286 30.3428 72.0155 30.3708C72.4072 30.0538 72.6589 29.7787 72.7708 29.5456C72.892 29.3032 72.9433 29.1027 72.9247 28.9442C72.906 28.767 72.8221 28.6132 72.6729 28.4826C72.4958 28.38 72.3046 28.3427 72.0995 28.3707C71.9223 28.3894 71.7172 28.4686 71.484 28.6085C71.2509 28.7484 71.0038 29.0094 70.7428 29.3917C70.7614 29.9885 70.7801 30.4827 70.7987 30.8743C70.8267 31.266 70.85 31.583 70.8686 31.8254C70.8966 32.1052 70.9199 32.3243 70.9386 32.4828C70.9665 32.6227 71.0225 32.7719 71.1064 32.9304C71.1717 33.0609 71.2649 33.2054 71.3861 33.364C71.5074 33.5225 71.6659 33.681 71.8617 33.8395C71.4514 33.8209 71.1157 33.8209 70.8546 33.8395C70.6961 33.8488 70.5563 33.8582 70.435 33.8675C70.3045 33.8861 70.1646 33.9048 70.0154 33.9234C69.8849 33.9421 69.7311 33.9607 69.5539 33.9794C69.386 34.0073 69.1996 34.0353 68.9944 34.0633C69.069 33.9607 69.1296 33.8395 69.1762 33.6996C69.2229 33.5691 69.2602 33.4432 69.2881 33.322C69.3254 33.1821 69.3534 33.0376 69.3721 32.8884C69.3814 32.7579 69.386 32.5621 69.386 32.301C69.3954 32.0399 69.3907 31.7462 69.3721 31.4198C69.3627 31.0841 69.3488 30.7391 69.3301 30.3848C69.3115 30.0211 69.2881 29.6808 69.2602 29.3638C69.2322 29.0467 69.1996 28.7717 69.1623 28.5386C69.1343 28.2961 69.1017 28.1283 69.0644 28.035C69.0177 27.9231 68.9618 27.8113 68.8965 27.6994C68.8406 27.5968 68.7706 27.4896 68.6867 27.3777C68.6028 27.2565 68.5096 27.1306 68.407 27Z" fill="#444444"/>
<path d="M63.4978 24.8881C63.7775 24.916 64.0107 24.9393 64.1971 24.958C64.393 24.9766 64.5515 24.9906 64.6727 25C64.8126 25.0093 64.9245 25.0139 65.0084 25.0139C65.0923 25.0233 65.2042 25.0233 65.3441 25.0139C65.4653 25.0046 65.6238 24.9953 65.8196 24.986C66.0154 24.9673 66.2625 24.9393 66.5609 24.902C66.4956 24.9953 66.4443 25.0792 66.407 25.1538C66.3697 25.2191 66.3371 25.2797 66.3091 25.3356L66.2252 25.5035C66.2066 25.5594 66.1879 25.6154 66.1693 25.6713C66.1506 25.7179 66.132 25.7739 66.1133 25.8392C66.104 25.9044 66.0947 25.9744 66.0853 26.049H68.2393L68.0435 27.1819L66.0714 27.07C66.0247 27.5455 65.9921 27.9138 65.9735 28.1749C65.9548 28.436 65.9362 28.6272 65.9175 28.7484L65.8895 29.0001C65.8616 29.3545 65.8336 29.7414 65.8056 30.161C65.7776 30.5713 65.7683 30.9536 65.7776 31.3079C65.787 31.6623 65.8196 31.9607 65.8755 32.2031C65.9315 32.4362 66.0294 32.5528 66.1693 32.5528C66.3091 32.5528 66.4397 32.5155 66.5609 32.4409C66.6821 32.3663 66.7847 32.2777 66.8686 32.1751C66.9618 32.0725 67.0318 31.97 67.0784 31.8674C67.125 31.7555 67.1483 31.6716 67.1483 31.6156C67.1483 31.5597 67.1343 31.4944 67.1064 31.4198C67.0598 31.28 66.9758 31.1028 66.8546 30.8883C67.125 30.9536 67.3628 31.0189 67.5679 31.0842C67.6705 31.1215 67.7637 31.1587 67.8477 31.196C67.9409 31.2333 68.0481 31.2753 68.1694 31.3219C68.2719 31.3685 68.4025 31.4245 68.561 31.4898C68.7195 31.555 68.906 31.6343 69.1205 31.7275C68.9153 31.7648 68.7661 31.8254 68.6729 31.9094C68.6169 31.9467 68.575 31.9886 68.547 32.0352C68.4817 32.1378 68.4071 32.2777 68.3232 32.4548C68.2393 32.6227 68.1134 32.7905 67.9456 32.9584C67.7777 33.1262 67.5493 33.2754 67.2602 33.4059C66.9805 33.5365 66.6029 33.6111 66.1273 33.6297C65.6331 33.6484 65.2555 33.5645 64.9944 33.378C64.7426 33.1915 64.5561 32.977 64.4349 32.7346C64.323 32.4828 64.2578 32.2357 64.2391 31.9933C64.2205 31.7509 64.2065 31.5877 64.1971 31.5038C64.1878 31.4198 64.1878 31.21 64.1971 30.8744C64.2065 30.5387 64.2205 30.1704 64.2391 29.7694C64.2578 29.3591 64.2764 28.9675 64.2951 28.5945C64.3137 28.2122 64.323 27.9325 64.323 27.7553C64.323 27.6621 64.3277 27.5642 64.337 27.4616C64.337 27.3777 64.337 27.2891 64.337 27.1959C64.3463 27.0933 64.351 26.9954 64.351 26.9021L62.3229 26.8882L62.239 26.0909L64.2811 26.1469C64.2624 26.0443 64.2391 25.951 64.2111 25.8671C64.1925 25.7739 64.1738 25.6993 64.1552 25.6433C64.1272 25.5781 64.0992 25.5221 64.0713 25.4755C64.034 25.4289 63.992 25.3776 63.9454 25.3216C63.8988 25.275 63.8382 25.2144 63.7636 25.1398C63.689 25.0652 63.6004 24.9813 63.4978 24.8881Z" fill="#444444"/>
<path d="M57.022 28.035C57.0686 27.9791 57.0966 27.8765 57.1059 27.7273C57.1246 27.5688 57.1619 27.3917 57.2178 27.1958C57.2831 27 57.3903 26.7949 57.5395 26.5804C57.6887 26.366 57.9311 26.1655 58.2668 25.979C58.5932 25.7925 58.9102 25.6806 59.2179 25.6433C59.5256 25.606 59.8193 25.62 60.0991 25.6853C60.3788 25.7506 60.6399 25.8531 60.8823 25.993C61.1341 26.1329 61.3625 26.2867 61.5677 26.4546C61.7075 26.5664 61.8194 26.7296 61.9034 26.9441C61.9873 27.1492 62.0525 27.3823 62.0992 27.6434C62.1458 27.9045 62.1784 28.1796 62.1971 28.4686C62.225 28.7484 62.2437 29.0234 62.253 29.2938C62.2623 29.5549 62.267 29.7974 62.267 30.0212C62.2763 30.2356 62.295 30.4128 62.323 30.5526C62.3603 30.7578 62.4255 30.935 62.5188 31.0841C62.612 31.224 62.7146 31.3452 62.8265 31.4478C62.9384 31.541 63.0503 31.6156 63.1622 31.6716C63.274 31.7275 63.372 31.7695 63.4559 31.7975C63.5118 31.8254 63.5631 31.8441 63.6097 31.8534C63.703 31.8907 63.7682 31.8907 63.8055 31.8534C63.7496 31.984 63.6983 32.0958 63.6517 32.1891C63.6051 32.2823 63.5678 32.3616 63.5398 32.4269C63.5025 32.5015 63.4699 32.5621 63.4419 32.6087C63.4139 32.6646 63.3813 32.7159 63.344 32.7625C63.316 32.8092 63.2787 32.8604 63.2321 32.9164C63.1855 32.9723 63.1388 33.033 63.0922 33.0982C62.971 33.0516 62.8544 32.9957 62.7426 32.9304C62.64 32.8651 62.5467 32.8045 62.4628 32.7486C62.3603 32.6833 62.267 32.618 62.1831 32.5527C62.0992 32.4875 62.0199 32.4129 61.9453 32.329C61.88 32.2544 61.8101 32.1751 61.7355 32.0912C61.6702 32.0073 61.6143 31.914 61.5677 31.8114C61.5117 31.9327 61.3765 32.1052 61.1621 32.329C60.9569 32.5527 60.6865 32.7579 60.3508 32.9444C60.0152 33.1215 59.6235 33.2474 59.176 33.322C58.7377 33.3966 58.2528 33.3453 57.7213 33.1682C57.4882 33.0936 57.2691 32.9863 57.064 32.8465C56.8588 32.6973 56.6817 32.5201 56.5325 32.315C56.3926 32.1098 56.29 31.8767 56.2248 31.6156C56.1688 31.3452 56.1735 31.0468 56.2388 30.7205C56.304 30.3941 56.4206 30.1191 56.5884 29.8953C56.7563 29.6715 56.9567 29.4897 57.1898 29.3498C57.423 29.2099 57.684 29.1027 57.9731 29.0281C58.2622 28.9535 58.5605 28.9022 58.8682 28.8742C59.1107 28.8649 59.3531 28.8789 59.5956 28.9162C59.8007 28.9535 60.0152 29.0234 60.2389 29.126C60.4627 29.2193 60.6539 29.3638 60.8124 29.5596C60.8031 29.0654 60.7844 28.6738 60.7564 28.3847C60.7378 28.0863 60.7191 27.8579 60.7005 27.6994C60.6632 27.5129 60.6306 27.3823 60.6026 27.3077C60.556 27.2425 60.5047 27.1679 60.4487 27.084C60.4021 27 60.3415 26.9254 60.2669 26.8602C60.1923 26.7856 60.0991 26.725 59.9872 26.6783C59.8753 26.6317 59.7447 26.6131 59.5956 26.6224C59.437 26.6317 59.3112 26.6737 59.2179 26.7483C59.1247 26.8229 59.0501 26.9115 58.9941 27.014C58.9475 27.1073 58.9195 27.2098 58.9102 27.3217C58.9009 27.4336 58.9055 27.5315 58.9242 27.6154C58.9428 27.6714 58.9708 27.732 59.0081 27.7973C59.0454 27.8532 59.0967 27.9138 59.162 27.9791C59.2272 28.0444 59.3158 28.1003 59.4277 28.1469C59.2133 28.1749 59.0221 28.1982 58.8543 28.2169C58.6864 28.2262 58.5419 28.2402 58.4207 28.2588C58.2808 28.2775 58.1596 28.2915 58.057 28.3008C57.9545 28.3101 57.8332 28.3288 57.6934 28.3567C57.5721 28.3754 57.423 28.3987 57.2458 28.4267C57.0686 28.4546 56.8635 28.4919 56.6304 28.5386C56.6863 28.4733 56.7376 28.4127 56.7842 28.3567C56.8309 28.2915 56.8728 28.2355 56.9101 28.1889C56.9474 28.133 56.9847 28.0817 57.022 28.035ZM59.12 29.6995C58.9522 29.7088 58.7843 29.7507 58.6165 29.8253C58.4486 29.8906 58.2995 29.9885 58.1689 30.1191C58.0384 30.2403 57.9265 30.3848 57.8332 30.5526C57.7493 30.7112 57.7074 30.8883 57.7074 31.0841C57.7074 31.28 57.754 31.4525 57.8472 31.6016C57.9498 31.7415 58.0803 31.8581 58.2388 31.9513C58.4067 32.0446 58.5839 32.1005 58.7703 32.1192C58.9662 32.1378 59.1573 32.1192 59.3438 32.0632C59.521 31.9979 59.6888 31.8954 59.8473 31.7555C60.0058 31.6063 60.141 31.4478 60.2529 31.28C60.3648 31.1028 60.4441 30.9303 60.4907 30.7624C60.5373 30.5853 60.542 30.4408 60.5047 30.3289C60.4301 30.0864 60.2623 29.9186 60.0012 29.8253C59.7401 29.7228 59.4464 29.6808 59.12 29.6995Z" fill="#444444"/>
<path d="M44.5459 23.6712C44.8442 23.6805 45.1053 23.6852 45.3291 23.6852C45.5529 23.6759 45.7347 23.6712 45.8746 23.6712H46.2802C46.3828 23.6619 46.5087 23.6572 46.6579 23.6572C46.7884 23.6572 46.9469 23.6572 47.1334 23.6572C47.3199 23.6572 47.5343 23.6619 47.7768 23.6712C47.8514 23.9323 47.9353 24.1887 48.0285 24.4405C48.1311 24.6829 48.2197 24.902 48.2943 25.0979C48.3875 25.331 48.4808 25.5501 48.574 25.7552C48.6673 25.9604 48.7792 26.2075 48.9097 26.4965C49.0216 26.739 49.1568 27.0373 49.3153 27.3917C49.4738 27.7367 49.6603 28.133 49.8748 28.5805C49.9774 28.2915 50.0706 28.0257 50.1545 27.7833C50.2478 27.5409 50.327 27.3311 50.3923 27.1539C50.4669 26.9488 50.5275 26.7623 50.5741 26.5944C50.6207 26.4266 50.672 26.2214 50.728 25.979C50.7746 25.7739 50.8259 25.5268 50.8818 25.2377C50.9471 24.9487 51.0124 24.613 51.0776 24.2307C51.348 24.2307 51.5905 24.2307 51.8049 24.2307C52.0194 24.2307 52.2059 24.226 52.3644 24.2167C52.5416 24.2167 52.7001 24.212 52.84 24.2027C52.9891 24.2027 53.1896 24.1934 53.4414 24.1747C53.6558 24.1561 53.9402 24.1421 54.2946 24.1328C54.6582 24.1141 55.1058 24.0908 55.6373 24.0628C55.4415 24.2027 55.283 24.3426 55.1617 24.4824C55.0499 24.613 54.9613 24.7295 54.896 24.8321C54.8214 24.9533 54.7748 25.0699 54.7561 25.1818C54.7375 25.275 54.7188 25.4895 54.7002 25.8252C54.6909 26.1608 54.6769 26.5618 54.6582 27.028C54.6489 27.4849 54.6396 27.9744 54.6303 28.4966C54.6303 29.0188 54.6349 29.513 54.6442 29.9792C54.6536 30.4454 54.6675 30.851 54.6862 31.196C54.7142 31.5317 54.7515 31.7462 54.7981 31.8394C54.8634 31.9513 54.9519 32.0819 55.0638 32.2311C55.1664 32.3616 55.2969 32.5108 55.4555 32.6786C55.6233 32.8465 55.8424 33.033 56.1128 33.2381C55.6839 33.2567 55.3249 33.2707 55.0359 33.2801C54.7561 33.2894 54.523 33.2987 54.3365 33.308C54.1221 33.3173 53.9496 33.322 53.819 33.322C53.6792 33.322 53.488 33.3267 53.2456 33.336C53.0311 33.3453 52.7467 33.3593 52.3924 33.378C52.0381 33.3873 51.5812 33.4059 51.0217 33.4339C51.1522 33.2847 51.2735 33.1355 51.3853 32.9863C51.4972 32.8371 51.5905 32.7019 51.6651 32.5807C51.7583 32.4409 51.8376 32.3056 51.9029 32.1751C51.9681 31.9979 52.0194 31.6762 52.0567 31.21C52.094 30.8091 52.122 30.2356 52.1406 29.4897C52.1593 28.7344 52.1593 27.7227 52.1406 26.4546C51.9635 26.7436 51.8049 27.0327 51.6651 27.3217C51.5345 27.6015 51.418 27.8579 51.3154 28.091C51.2035 28.3614 51.1009 28.6225 51.0077 28.8743C50.9145 29.1353 50.8166 29.4244 50.714 29.7414C50.6207 30.0118 50.5088 30.3335 50.3783 30.7065C50.2571 31.0795 50.1172 31.4898 49.9587 31.9373L49.4272 31.9653C49.3526 31.5923 49.278 31.2566 49.2034 30.9583C49.1288 30.6506 49.0542 30.3895 48.9796 30.175C48.8957 29.9233 48.8118 29.6995 48.7279 29.5037C48.6346 29.3078 48.5321 29.0887 48.4202 28.8463C48.3176 28.6411 48.1917 28.3987 48.0425 28.119C47.9027 27.8392 47.7395 27.5269 47.553 27.1819C47.4598 28.133 47.4038 28.9069 47.3852 29.5037C47.3665 30.0911 47.3665 30.548 47.3852 30.8743C47.4038 31.266 47.4318 31.5504 47.4691 31.7275C47.525 31.886 47.6136 32.0632 47.7348 32.259C47.8374 32.4269 47.9773 32.6273 48.1544 32.8605C48.3409 33.0842 48.5787 33.336 48.8677 33.6157C48.6626 33.6157 48.4481 33.6157 48.2244 33.6157C48.0006 33.6157 47.7954 33.6204 47.6089 33.6297C47.3852 33.639 47.166 33.6437 46.9516 33.6437C46.7278 33.653 46.4667 33.667 46.1683 33.6857C45.9072 33.7043 45.5949 33.723 45.2312 33.7416C44.8676 33.7603 44.448 33.7929 43.9724 33.8395C44.1775 33.709 44.3454 33.5831 44.4759 33.4619C44.6065 33.3313 44.709 33.2148 44.7836 33.1122C44.8769 32.991 44.9468 32.8698 44.9934 32.7486C45.0214 32.674 45.0447 32.5108 45.0634 32.259C45.0913 32.0073 45.1147 31.6996 45.1333 31.3359C45.1613 30.9723 45.1799 30.5666 45.1893 30.1191C45.2079 29.6715 45.2219 29.2193 45.2312 28.7624C45.2499 28.2961 45.2638 27.8439 45.2732 27.4057C45.2825 26.9581 45.2872 26.5571 45.2872 26.2028C45.2965 25.8391 45.3011 25.5361 45.3011 25.2937C45.3011 25.0512 45.3011 24.8974 45.3011 24.8321C45.2732 24.6922 45.2312 24.5524 45.1753 24.4125C45.1286 24.2913 45.054 24.1654 44.9515 24.0349C44.8489 23.9043 44.7137 23.7831 44.5459 23.6712Z" fill="#444444"/>
<path d="M35.9589 30.5487C35.9971 30.5296 36.0258 30.4867 36.0449 30.4198C36.064 30.3434 36.0783 30.2623 36.0878 30.1763C36.1069 30.0904 36.1213 30.0045 36.1308 29.9185C36.1499 29.8231 36.1786 29.7467 36.2167 29.6894C36.3313 29.5175 36.4268 29.3743 36.5032 29.2597C36.5891 29.1356 36.6607 29.0353 36.718 28.9589C36.7849 28.873 36.8374 28.8062 36.8756 28.7584C36.9138 28.7011 36.9424 28.6439 36.9615 28.5866C37.0856 28.4911 37.1525 28.4052 37.162 28.3288C37.1811 28.2524 37.2241 28.1473 37.2909 28.0137C37.3387 27.9182 37.3912 27.7941 37.4485 27.6413C37.5058 27.479 37.5392 27.3835 37.5487 27.3548C37.5774 27.2689 37.6251 27.1734 37.6919 27.0684C37.7683 26.9538 37.8399 26.8345 37.9068 26.7103C37.9832 26.5767 38.05 26.4382 38.1073 26.295C38.1646 26.1422 38.1932 25.9847 38.1932 25.8224C38.2028 25.6123 38.2076 25.4309 38.2076 25.2781C38.2171 25.1158 38.2314 24.9773 38.2505 24.8628L38.6945 24.7625L39.1958 24.9917C39.1958 25.1444 39.2435 25.2781 39.339 25.3927C39.444 25.4977 39.5013 25.5932 39.5109 25.6791C39.5109 25.7555 39.4536 25.8892 39.339 26.0802C39.2244 26.2616 39.1385 26.486 39.0812 26.7533C39.0717 26.8297 39.0144 26.9299 38.9093 27.0541C38.8043 27.1687 38.747 27.3071 38.7375 27.4694C38.7375 27.6317 38.7041 27.7988 38.6372 27.9707C38.5704 28.133 38.5226 28.2476 38.494 28.3144C38.4081 28.5245 38.2792 28.8062 38.1073 29.1595C37.945 29.5127 37.7397 29.9472 37.4914 30.4628C37.2432 30.9784 37.0379 31.3794 36.8756 31.6659C36.7133 31.9523 36.6178 32.129 36.5891 32.1958L36.4745 32.4536L36.36 32.6828L35.8014 33.0695L34.8704 33.0838L34.584 33.227L34.0684 32.6398C34.0111 32.4966 33.9252 32.339 33.8106 32.1672C33.7056 31.9953 33.6053 31.7948 33.5098 31.5656L33.1804 30.7206C33.2663 30.5201 33.3093 30.3625 33.3093 30.248C33.3189 30.1334 33.2998 30.0474 33.252 29.9902C33.2043 29.9329 33.1374 29.8994 33.0515 29.8899C32.9656 29.8708 32.8749 29.8565 32.7794 29.8469C32.7221 29.8374 32.66 29.7801 32.5932 29.6751C32.5264 29.5605 32.4595 29.4841 32.3927 29.4459L32.364 29.1165L31.9917 28.515L31.8771 27.2832C31.8962 27.2164 31.8866 27.1639 31.8484 27.1257C31.8198 27.0875 31.7768 27.0589 31.7195 27.0398L31.5477 26.9681C31.4808 26.9395 31.4426 26.9061 31.4331 26.8679C31.3567 26.7151 31.2946 26.5767 31.2469 26.4525C31.2087 26.3189 31.1753 26.1995 31.1466 26.0945C31.118 25.9894 31.0846 25.894 31.0464 25.808C31.0177 25.7221 30.9748 25.6505 30.9175 25.5932L30.9318 25.006C31.0464 24.9391 31.1992 24.8962 31.3901 24.8771C31.6097 24.858 31.7768 24.7816 31.8914 24.6479L32.364 24.5047C32.4786 24.6002 32.5932 24.6861 32.7078 24.7625C32.8224 24.8389 32.9083 24.9105 32.9656 24.9773C33.1183 25.1588 33.3189 25.3068 33.5671 25.4213C33.5767 25.4691 33.6053 25.5789 33.653 25.7507C33.7103 25.9226 33.7724 26.1279 33.8392 26.3666C33.9156 26.6053 34.0016 26.8679 34.097 27.1543C34.1925 27.4312 34.2832 27.7034 34.3692 27.9707C34.4646 28.2381 34.5554 28.4863 34.6413 28.7155C34.7368 28.9351 34.8179 29.1117 34.8848 29.2454C34.9134 29.3027 34.9468 29.3934 34.985 29.5175C35.0232 29.6416 35.0614 29.7705 35.0996 29.9042C35.1378 30.0284 35.1712 30.1477 35.1999 30.2623C35.2381 30.3769 35.2667 30.4532 35.2858 30.4914C35.3526 30.4914 35.4099 30.501 35.4577 30.5201C35.5054 30.5392 35.5531 30.5583 35.6009 30.5774C35.6486 30.5965 35.7011 30.606 35.7584 30.606C35.8157 30.606 35.8826 30.5869 35.9589 30.5487Z" fill="#444444"/>
<path d="M26.476 30.5487C26.5142 30.5296 26.5429 30.4867 26.562 30.4198C26.5811 30.3434 26.5954 30.2623 26.6049 30.1763C26.624 30.0904 26.6384 30.0045 26.6479 29.9185C26.667 29.8231 26.6956 29.7467 26.7338 29.6894C26.8484 29.5175 26.9439 29.3743 27.0203 29.2597C27.1062 29.1356 27.1778 29.0353 27.2351 28.9589C27.302 28.873 27.3545 28.8062 27.3927 28.7584C27.4309 28.7011 27.4595 28.6439 27.4786 28.5866C27.6027 28.4911 27.6696 28.4052 27.6791 28.3288C27.6982 28.2524 27.7412 28.1473 27.808 28.0137C27.8558 27.9182 27.9083 27.7941 27.9656 27.6413C28.0228 27.479 28.0563 27.3835 28.0658 27.3548C28.0945 27.2689 28.1422 27.1734 28.209 27.0684C28.2854 26.9538 28.357 26.8345 28.4239 26.7103C28.5003 26.5767 28.5671 26.4382 28.6244 26.295C28.6817 26.1422 28.7103 25.9847 28.7103 25.8224C28.7199 25.6123 28.7246 25.4309 28.7246 25.2781C28.7342 25.1158 28.7485 24.9773 28.7676 24.8628L29.2116 24.7625L29.7129 24.9917C29.7129 25.1444 29.7606 25.2781 29.8561 25.3927C29.9611 25.4977 30.0184 25.5932 30.028 25.6791C30.028 25.7555 29.9707 25.8892 29.8561 26.0802C29.7415 26.2616 29.6556 26.486 29.5983 26.7533C29.5888 26.8297 29.5315 26.9299 29.4264 27.0541C29.3214 27.1687 29.2641 27.3071 29.2546 27.4694C29.2546 27.6317 29.2212 27.7988 29.1543 27.9707C29.0875 28.133 29.0397 28.2476 29.0111 28.3144C28.9252 28.5245 28.7963 28.8062 28.6244 29.1595C28.4621 29.5127 28.2568 29.9472 28.0085 30.4628C27.7603 30.9784 27.555 31.3794 27.3927 31.6659C27.2303 31.9523 27.1349 32.129 27.1062 32.1958L26.9916 32.4536L26.8771 32.6828L26.3185 33.0695L25.3875 33.0838L25.1011 33.227L24.5855 32.6398C24.5282 32.4966 24.4423 32.339 24.3277 32.1672C24.2227 31.9953 24.1224 31.7948 24.0269 31.5656L23.6975 30.7206C23.7834 30.5201 23.8264 30.3625 23.8264 30.248C23.836 30.1334 23.8169 30.0474 23.7691 29.9902C23.7214 29.9329 23.6545 29.8994 23.5686 29.8899C23.4827 29.8708 23.392 29.8565 23.2965 29.8469C23.2392 29.8374 23.1771 29.7801 23.1103 29.6751C23.0434 29.5605 22.9766 29.4841 22.9098 29.4459L22.8811 29.1165L22.5087 28.515L22.3942 27.2832C22.4133 27.2164 22.4037 27.1639 22.3655 27.1257C22.3369 27.0875 22.2939 27.0589 22.2366 27.0398L22.0648 26.9681C21.9979 26.9395 21.9597 26.9061 21.9502 26.8679C21.8738 26.7151 21.8117 26.5767 21.764 26.4525C21.7258 26.3189 21.6924 26.1995 21.6637 26.0945C21.6351 25.9894 21.6017 25.894 21.5635 25.808C21.5348 25.7221 21.4919 25.6505 21.4346 25.5932L21.4489 25.006C21.5635 24.9391 21.7162 24.8962 21.9072 24.8771C22.1268 24.858 22.2939 24.7816 22.4085 24.6479L22.8811 24.5047C22.9957 24.6002 23.1103 24.6861 23.2249 24.7625C23.3394 24.8389 23.4254 24.9105 23.4827 24.9773C23.6354 25.1588 23.836 25.3068 24.0842 25.4213C24.0938 25.4691 24.1224 25.5789 24.1701 25.7507C24.2274 25.9226 24.2895 26.1279 24.3563 26.3666C24.4327 26.6053 24.5186 26.8679 24.6141 27.1543C24.7096 27.4312 24.8003 27.7034 24.8863 27.9707C24.9817 28.2381 25.0724 28.4863 25.1584 28.7155C25.2539 28.9351 25.335 29.1117 25.4019 29.2454C25.4305 29.3027 25.4639 29.3934 25.5021 29.5175C25.5403 29.6416 25.5785 29.7705 25.6167 29.9042C25.6549 30.0284 25.6883 30.1477 25.717 30.2623C25.7551 30.3769 25.7838 30.4532 25.8029 30.4914C25.8697 30.4914 25.927 30.501 25.9748 30.5201C26.0225 30.5392 26.0702 30.5583 26.118 30.5774C26.1657 30.5965 26.2182 30.606 26.2755 30.606C26.3328 30.606 26.3997 30.5869 26.476 30.5487Z" fill="#444444"/>
</svg>
