<svg width="24" height="24" viewBox="0 0 24 24" fill="none" xmlns="http://www.w3.org/2000/svg">
<path d="M18.2222 11H5.77778C4.79594 11 4 11.814 4 12.8182V19.1818C4 20.186 4.79594 21 5.77778 21H18.2222C19.2041 21 20 20.186 20 19.1818V12.8182C20 11.814 19.2041 11 18.2222 11Z" stroke="#2D3F51" stroke-width="1.5" stroke-linecap="round" stroke-linejoin="round"/>
<path d="M8 11V7.44444C8 6.2657 8.47411 5.13524 9.31802 4.30175C10.1619 3.46825 11.3065 3 12.5 3C13.6935 3 14.8381 3.46825 15.682 4.30175C16.5259 5.13524 17 6.2657 17 7.44444V11" stroke="#2D3F51" stroke-width="1.5" stroke-linecap="round" stroke-linejoin="round"/>
</svg>
