<svg width="273" height="88" viewBox="0 0 273 88" fill="none" xmlns="http://www.w3.org/2000/svg">
<path d="M81.9894 20.8566L76.013 19.3589L77.1716 20.821L73.6248 21.3301C73.4238 21.0756 73.0396 20.9513 72.5903 20.9157C72.5726 20.8743 72.5549 20.8329 72.5431 20.7974C72.0347 19.6431 71.4081 18.5717 70.746 17.5476C69.41 15.4995 67.8435 13.7059 66.2711 11.9893C65.4849 11.131 64.6928 10.2964 63.9302 9.44398C63.1676 8.59751 62.4287 7.73328 61.8021 6.81577C61.477 6.35998 61.211 5.87459 60.9627 5.38328L60.809 5.00444L60.7322 4.81502L60.6731 4.61968L60.5548 4.22308L60.4839 3.82057C60.2947 2.7314 60.6139 1.58304 61.2051 0.594502C60.8563 1.05029 60.5135 1.53568 60.3184 2.09803C60.1942 2.37032 60.1351 2.66037 60.0642 2.95634C60.0287 3.10432 60.0287 3.2523 60.011 3.40621C59.9933 3.55419 59.9814 3.7081 59.9873 3.862L59.9992 4.31779L60.0642 4.76767C60.0642 4.80318 60.076 4.83278 60.0819 4.8683L48.8267 20.8151C48.6021 20.827 48.3834 20.8388 48.1706 20.8566C48.7676 20.4304 48.342 19.3649 48.9508 19.1518C49.5834 18.9327 49.1577 18.181 49.1577 18.181C49.5479 18.0744 48.9568 16.9794 48.9568 16.9794C49.8375 16.9024 50.943 15.9316 50.3932 15.76C49.8435 15.5942 48.608 13.5935 49.0927 12.0544C49.5774 10.5154 48.7558 9.19536 48.7558 9.19536C50.7775 10.1129 51.1676 8.20683 51.1676 8.20683C49.4474 9.03554 48.7026 8.01741 48.7026 8.01741C50.2809 7.89902 50.2218 6.88089 49.944 5.71477C49.6661 4.54865 48.2592 4.74399 48.2592 4.74399C48.2592 4.74399 48.2001 3.72586 47.4907 2.66629C46.7814 1.60672 45.6523 2.37032 45.6523 2.37032C45.6523 2.37032 45.4868 0.724728 43.7193 0.150548C41.9518 -0.423632 41.1952 0.961504 41.1952 0.961504C41.1952 0.961504 39.0848 -0.73144 36.6139 0.375485C34.1429 1.48241 34.3557 3.42397 34.3557 3.42397C30.9626 3.128 31.0158 5.89827 31.0158 5.89827C29.9931 7.02295 31.3114 8.09436 31.3114 8.09436C31.3114 8.09436 29.6739 7.83983 29.4493 10.1247C29.2247 12.4096 30.6434 12.6641 30.6434 12.6641C29.5084 14.7241 31.5064 15.5232 31.5064 15.5232C31.2759 18.6427 33.8533 18.2935 33.8533 18.2935C34.2434 18.9446 33.8946 19.8799 33.7646 20.1817C30.9508 18.8025 27.1025 15.4581 25.4355 10.835C23.8453 6.43101 18.5488 9.32559 12.9803 17.0267C11.8571 18.5776 13.5537 20.531 14.9842 19.5602C14.3694 20.4126 13.7547 21.3538 13.134 22.3778C12.1763 23.9701 14.1034 25.7341 15.3566 24.4082L16.8818 22.7981L16.066 24.2543C15.2148 25.7696 16.9291 27.4389 18.2059 26.3379L19.6187 25.1244L19.1695 26.2846C18.5429 27.9125 20.4404 29.2798 21.5636 28.0072L22.0424 27.4626C21.8828 29.1082 23.8394 29.8895 24.6966 28.5221L24.9981 28.0368L24.933 29.1082C24.8621 30.2329 25.7902 30.9432 26.6473 30.7834C26.6119 31.0675 26.6119 31.3516 26.6591 31.6357C26.7951 32.4289 27.2503 33.1038 27.9183 33.6187C27.8591 33.8555 27.8119 34.0864 27.7823 34.3054C27.1261 38.9758 23.402 39.3191 21.735 42.0302C20.7123 43.6876 20.0739 45.8541 21.0729 48.0561C19.7606 49.6366 18.4246 51.7853 18.5369 53.8689C18.5369 53.8689 18.2296 52.3121 15.6345 51.1519C13.0394 49.9858 11.13 51.8978 9.7113 50.0805C8.29849 48.2633 6.53099 48.654 5.68567 50.2404C4.84034 51.8268 0.53688 53.1468 0.773334 54.5733C0.773334 54.5733 -0.444404 55.1594 0.176288 55.923C0.79698 56.6866 1.76053 55.8164 1.76053 55.8164C1.76053 55.8164 1.796 57.5745 3.12014 57.314C4.44428 57.0536 6.4305 54.236 8.87189 55.2245C11.3192 56.213 16.1428 63.7484 19.997 63.5175C23.3961 63.3163 29.5557 56.5267 31.0513 53.8275C32.0503 56.0295 34.1193 59.7351 37.0986 60.6822C37.0986 60.6822 35.3311 60.3803 33.0611 62.6592C30.7912 64.9382 32.0385 67.7321 29.5498 68.5017C27.0611 69.2712 26.7655 71.2956 28.0956 72.8287C29.4316 74.3618 29.0946 79.4466 30.6907 79.7781C30.6907 79.7781 30.8207 81.3053 31.8789 80.9501C32.937 80.6009 32.3991 79.2276 32.3991 79.2276C32.3991 79.2276 34.273 79.8965 34.5331 78.3929C34.7932 76.8894 32.6119 73.6515 34.6395 71.4554C36.6671 69.2593 46.5686 67.1876 47.875 63.0144C49.1814 58.8412 42.9804 47.4997 41.337 46.7183C46.208 43.4212 46.74 34.7612 46.74 34.7612C47.7213 33.8674 48.3183 32.6243 48.6494 31.2569L67.6366 48.429C67.6366 48.648 67.6366 48.8611 67.6366 49.0802L67.678 49.536C67.6898 49.6839 67.7076 49.8378 67.743 49.9858L67.8317 50.4298L67.9677 50.8678C68.009 51.0158 68.0741 51.152 68.1391 51.2881C68.2041 51.4242 68.2573 51.5663 68.3401 51.6906C68.5056 51.9451 68.6534 52.1997 68.8603 52.4187C69.2327 52.8804 69.7174 53.2237 70.1962 53.5434C69.3095 52.8035 68.6357 51.8208 68.4524 50.7376L68.3874 50.3351L68.3696 49.9207V49.5123L68.3933 49.1038C68.4642 48.5533 68.5529 48.0088 68.7125 47.4701C69.0022 46.3928 69.4159 45.3391 69.8534 44.2855C70.2967 43.2318 70.7637 42.1782 71.2248 41.1068C72.1411 38.9699 73.0278 36.756 73.613 34.3823C73.9027 33.1985 74.1391 31.9732 74.2337 30.7182C74.3224 29.6528 74.3283 28.5695 74.2573 27.4744C75.0436 26.3438 74.5115 24.1951 74.0918 22.7212L77.3904 22.2476L76.6928 23.982L82.0012 20.8625L81.9894 20.8566ZM34.7932 17.4943C36.2592 18.7019 35.4198 20.6198 35.4198 20.6198C35.4198 20.6198 35.3784 20.673 35.3134 20.7618C34.8818 20.6553 34.3912 20.4777 33.8592 20.2232C35.3902 19.7023 34.7932 17.4943 34.7932 17.4943ZM60.1469 5.24714L60.2474 5.65557C60.4307 6.22975 60.6494 6.79802 60.9213 7.33076C61.4474 8.40809 62.0859 9.40846 62.7302 10.3792C63.3805 11.35 64.0484 12.303 64.6928 13.2501C65.9874 15.1443 67.1992 17.0504 68.1154 19.0334C68.3696 19.5839 68.6002 20.1403 68.8071 20.6967C67.3647 21.1229 66.5076 22.0463 66.2179 22.4133L65.5263 22.514C64.1194 22.2417 62.1805 20.9927 60.3598 20.679C58.273 20.3179 54.4484 21.6853 54.4484 21.6853C52.5449 20.9749 50.7065 20.7855 49.1696 20.8092L60.1469 5.25898V5.24714ZM70.7164 30.6413C70.7874 31.6949 70.7401 32.7723 70.6396 33.8555C70.4327 36.0279 69.9125 38.2299 69.3214 40.4438C69.0258 41.5507 68.7066 42.6695 68.4169 43.8001C68.1273 44.9366 67.8613 46.0909 67.7135 47.2748C67.678 47.5293 67.6603 47.7897 67.6425 48.0502L48.7203 30.9313C48.7617 30.736 48.7971 30.5407 48.8326 30.3394C51.6287 30.3572 54.744 29.2621 55.8435 28.83C57.1854 28.3031 57.9065 29.3745 59.9814 29.3094C62.0563 29.2443 66.6553 27.1666 66.6553 27.1666C67.5598 27.871 68.9135 28.3386 70.4327 28.4215C70.5687 29.1437 70.6632 29.8836 70.7105 30.6294L70.7164 30.6413Z" fill="#FF5069"/>
<path d="M62.852 72.52C62.9427 72.4747 63.0107 72.3727 63.056 72.214C63.1013 72.0327 63.1353 71.84 63.158 71.636C63.2033 71.432 63.2373 71.228 63.26 71.024C63.3053 70.7973 63.3733 70.616 63.464 70.48C63.736 70.072 63.9627 69.732 64.144 69.46C64.348 69.1653 64.518 68.9273 64.654 68.746C64.8127 68.542 64.9373 68.3833 65.028 68.27C65.1187 68.134 65.1867 67.998 65.232 67.862C65.5267 67.6353 65.6853 67.4313 65.708 67.25C65.7533 67.0687 65.8553 66.8193 66.014 66.502C66.1273 66.2753 66.252 65.9807 66.388 65.618C66.524 65.2327 66.6033 65.006 66.626 64.938C66.694 64.734 66.8073 64.5073 66.966 64.258C67.1473 63.986 67.3173 63.7027 67.476 63.408C67.6573 63.0907 67.816 62.762 67.952 62.422C68.088 62.0593 68.156 61.6853 68.156 61.3C68.1787 60.8013 68.19 60.3707 68.19 60.008C68.2127 59.6227 68.2467 59.294 68.292 59.022L69.346 58.784L70.536 59.328C70.536 59.6907 70.6493 60.008 70.876 60.28C71.1253 60.5293 71.2613 60.756 71.284 60.96C71.284 61.1413 71.148 61.4587 70.876 61.912C70.604 62.3427 70.4 62.8753 70.264 63.51C70.2413 63.6913 70.1053 63.9293 69.856 64.224C69.6067 64.496 69.4707 64.8247 69.448 65.21C69.448 65.5953 69.3687 65.992 69.21 66.4C69.0513 66.7853 68.938 67.0573 68.87 67.216C68.666 67.7147 68.36 68.3833 67.952 69.222C67.5667 70.0607 67.0793 71.092 66.49 72.316C65.9007 73.54 65.4133 74.492 65.028 75.172C64.6427 75.852 64.416 76.2713 64.348 76.43L64.076 77.042L63.804 77.586L62.478 78.504L60.268 78.538L59.588 78.878L58.364 77.484C58.228 77.144 58.024 76.77 57.752 76.362C57.5027 75.954 57.2647 75.478 57.038 74.934L56.256 72.928C56.46 72.452 56.562 72.078 56.562 71.806C56.5847 71.534 56.5393 71.33 56.426 71.194C56.3127 71.058 56.154 70.9787 55.95 70.956C55.746 70.9107 55.5307 70.8767 55.304 70.854C55.168 70.8313 55.0207 70.6953 54.862 70.446C54.7033 70.174 54.5447 69.9927 54.386 69.902L54.318 69.12L53.434 67.692L53.162 64.768C53.2073 64.6093 53.1847 64.4847 53.094 64.394C53.026 64.3033 52.924 64.2353 52.788 64.19L52.38 64.02C52.2213 63.952 52.1307 63.8727 52.108 63.782C51.9267 63.4193 51.7793 63.0907 51.666 62.796C51.5753 62.4787 51.496 62.1953 51.428 61.946C51.36 61.6967 51.2807 61.47 51.19 61.266C51.122 61.062 51.02 60.892 50.884 60.756L50.918 59.362C51.19 59.2033 51.5527 59.1013 52.006 59.056C52.5273 59.0107 52.924 58.8293 53.196 58.512L54.318 58.172C54.59 58.3987 54.862 58.6027 55.134 58.784C55.406 58.9653 55.61 59.1353 55.746 59.294C56.1087 59.7247 56.5847 60.076 57.174 60.348C57.1967 60.4613 57.2647 60.722 57.378 61.13C57.514 61.538 57.6613 62.0253 57.82 62.592C58.0013 63.1587 58.2053 63.782 58.432 64.462C58.6587 65.1193 58.874 65.7653 59.078 66.4C59.3047 67.0347 59.52 67.624 59.724 68.168C59.9507 68.6893 60.1433 69.1087 60.302 69.426C60.37 69.562 60.4493 69.7773 60.54 70.072C60.6307 70.3667 60.7213 70.6727 60.812 70.99C60.9027 71.2847 60.982 71.568 61.05 71.84C61.1407 72.112 61.2087 72.2933 61.254 72.384C61.4127 72.384 61.5487 72.4067 61.662 72.452C61.7753 72.4973 61.8887 72.5427 62.002 72.588C62.1153 72.6333 62.24 72.656 62.376 72.656C62.512 72.656 62.6707 72.6107 62.852 72.52ZM85.3637 72.52C85.4544 72.4747 85.5224 72.3727 85.5677 72.214C85.6131 72.0327 85.6471 71.84 85.6697 71.636C85.7151 71.432 85.7491 71.228 85.7717 71.024C85.8171 70.7973 85.8851 70.616 85.9757 70.48C86.2477 70.072 86.4744 69.732 86.6557 69.46C86.8597 69.1653 87.0297 68.9273 87.1657 68.746C87.3244 68.542 87.4491 68.3833 87.5397 68.27C87.6304 68.134 87.6984 67.998 87.7437 67.862C88.0384 67.6353 88.1971 67.4313 88.2197 67.25C88.2651 67.0687 88.3671 66.8193 88.5257 66.502C88.6391 66.2753 88.7637 65.9807 88.8997 65.618C89.0357 65.2327 89.1151 65.006 89.1377 64.938C89.2057 64.734 89.3191 64.5073 89.4777 64.258C89.6591 63.986 89.8291 63.7027 89.9877 63.408C90.1691 63.0907 90.3277 62.762 90.4637 62.422C90.5997 62.0593 90.6677 61.6853 90.6677 61.3C90.6904 60.8013 90.7017 60.3707 90.7017 60.008C90.7244 59.6227 90.7584 59.294 90.8037 59.022L91.8577 58.784L93.0477 59.328C93.0477 59.6907 93.1611 60.008 93.3877 60.28C93.6371 60.5293 93.7731 60.756 93.7957 60.96C93.7957 61.1413 93.6597 61.4587 93.3877 61.912C93.1157 62.3427 92.9117 62.8753 92.7757 63.51C92.7531 63.6913 92.6171 63.9293 92.3677 64.224C92.1184 64.496 91.9824 64.8247 91.9597 65.21C91.9597 65.5953 91.8804 65.992 91.7217 66.4C91.5631 66.7853 91.4497 67.0573 91.3817 67.216C91.1777 67.7147 90.8717 68.3833 90.4637 69.222C90.0784 70.0607 89.5911 71.092 89.0017 72.316C88.4124 73.54 87.9251 74.492 87.5397 75.172C87.1544 75.852 86.9277 76.2713 86.8597 76.43L86.5877 77.042L86.3157 77.586L84.9897 78.504L82.7797 78.538L82.0997 78.878L80.8757 77.484C80.7397 77.144 80.5357 76.77 80.2637 76.362C80.0144 75.954 79.7764 75.478 79.5497 74.934L78.7677 72.928C78.9717 72.452 79.0737 72.078 79.0737 71.806C79.0964 71.534 79.0511 71.33 78.9377 71.194C78.8244 71.058 78.6657 70.9787 78.4617 70.956C78.2577 70.9107 78.0424 70.8767 77.8157 70.854C77.6797 70.8313 77.5324 70.6953 77.3737 70.446C77.2151 70.174 77.0564 69.9927 76.8977 69.902L76.8297 69.12L75.9457 67.692L75.6737 64.768C75.7191 64.6093 75.6964 64.4847 75.6057 64.394C75.5377 64.3033 75.4357 64.2353 75.2997 64.19L74.8917 64.02C74.7331 63.952 74.6424 63.8727 74.6197 63.782C74.4384 63.4193 74.2911 63.0907 74.1777 62.796C74.0871 62.4787 74.0077 62.1953 73.9397 61.946C73.8717 61.6967 73.7924 61.47 73.7017 61.266C73.6337 61.062 73.5317 60.892 73.3957 60.756L73.4297 59.362C73.7017 59.2033 74.0644 59.1013 74.5177 59.056C75.0391 59.0107 75.4357 58.8293 75.7077 58.512L76.8297 58.172C77.1017 58.3987 77.3737 58.6027 77.6457 58.784C77.9177 58.9653 78.1217 59.1353 78.2577 59.294C78.6204 59.7247 79.0964 60.076 79.6857 60.348C79.7084 60.4613 79.7764 60.722 79.8897 61.13C80.0257 61.538 80.1731 62.0253 80.3317 62.592C80.5131 63.1587 80.7171 63.782 80.9437 64.462C81.1704 65.1193 81.3857 65.7653 81.5897 66.4C81.8164 67.0347 82.0317 67.624 82.2357 68.168C82.4624 68.6893 82.6551 69.1087 82.8137 69.426C82.8817 69.562 82.9611 69.7773 83.0517 70.072C83.1424 70.3667 83.2331 70.6727 83.3237 70.99C83.4144 71.2847 83.4937 71.568 83.5617 71.84C83.6524 72.112 83.7204 72.2933 83.7657 72.384C83.9244 72.384 84.0604 72.4067 84.1737 72.452C84.2871 72.4973 84.4004 72.5427 84.5137 72.588C84.6271 72.6333 84.7517 72.656 84.8877 72.656C85.0237 72.656 85.1824 72.6107 85.3637 72.52ZM105.748 56.1934C106.456 56.2155 107.076 56.2266 107.607 56.2266C108.139 56.2044 108.57 56.1934 108.902 56.1934H109.865C110.109 56.1712 110.408 56.1602 110.762 56.1602C111.072 56.1602 111.448 56.1602 111.891 56.1602C112.333 56.1602 112.842 56.1712 113.418 56.1934C113.595 56.8132 113.794 57.4219 114.016 58.0195C114.259 58.5951 114.469 59.1152 114.646 59.5801C114.868 60.1335 115.089 60.6536 115.311 61.1406C115.532 61.6276 115.798 62.2142 116.107 62.9004C116.373 63.4759 116.694 64.1842 117.07 65.0254C117.447 65.8444 117.889 66.7852 118.398 67.8477C118.642 67.1615 118.863 66.5306 119.062 65.9551C119.284 65.3796 119.472 64.8815 119.627 64.4609C119.804 63.974 119.948 63.5312 120.059 63.1328C120.169 62.7344 120.291 62.2474 120.424 61.6719C120.535 61.1849 120.656 60.5983 120.789 59.9121C120.944 59.2259 121.099 58.429 121.254 57.5215C121.896 57.5215 122.471 57.5215 122.98 57.5215C123.49 57.5215 123.932 57.5104 124.309 57.4883C124.729 57.4883 125.105 57.4772 125.438 57.4551C125.792 57.4551 126.268 57.4329 126.865 57.3887C127.374 57.3444 128.049 57.3112 128.891 57.2891C129.754 57.2448 130.816 57.1895 132.078 57.123C131.613 57.4551 131.237 57.7871 130.949 58.1191C130.684 58.429 130.473 58.7057 130.318 58.9492C130.141 59.237 130.031 59.5137 129.986 59.7793C129.942 60.0007 129.898 60.5098 129.854 61.3066C129.831 62.1035 129.798 63.0553 129.754 64.1621C129.732 65.2467 129.71 66.4089 129.688 67.6484C129.688 68.888 129.699 70.0612 129.721 71.168C129.743 72.2747 129.776 73.2376 129.82 74.0566C129.887 74.8535 129.975 75.3626 130.086 75.584C130.241 75.8496 130.451 76.1595 130.717 76.5137C130.96 76.8236 131.27 77.1777 131.646 77.5762C132.045 77.9746 132.565 78.4173 133.207 78.9043C132.189 78.9486 131.337 78.9818 130.65 79.0039C129.986 79.026 129.433 79.0482 128.99 79.0703C128.481 79.0924 128.072 79.1035 127.762 79.1035C127.43 79.1035 126.976 79.1146 126.4 79.1367C125.891 79.1589 125.216 79.1921 124.375 79.2363C123.534 79.2585 122.449 79.3027 121.121 79.3691C121.431 79.015 121.719 78.6608 121.984 78.3066C122.25 77.9525 122.471 77.6315 122.648 77.3438C122.87 77.0117 123.058 76.6908 123.213 76.3809C123.368 75.9603 123.49 75.1966 123.578 74.0898C123.667 73.138 123.733 71.7767 123.777 70.0059C123.822 68.2129 123.822 65.8112 123.777 62.8008C123.357 63.487 122.98 64.1732 122.648 64.8594C122.339 65.5234 122.062 66.1322 121.818 66.6855C121.553 67.3275 121.309 67.9473 121.088 68.5449C120.867 69.1647 120.634 69.8509 120.391 70.6035C120.169 71.2454 119.904 72.0091 119.594 72.8945C119.306 73.7799 118.974 74.7539 118.598 75.8164L117.336 75.8828C117.159 74.9974 116.982 74.2005 116.805 73.4922C116.628 72.7617 116.451 72.1419 116.273 71.6328C116.074 71.0352 115.875 70.5039 115.676 70.0391C115.454 69.5742 115.211 69.054 114.945 68.4785C114.702 67.9915 114.403 67.416 114.049 66.752C113.717 66.0879 113.329 65.3464 112.887 64.5273C112.665 66.7852 112.533 68.6224 112.488 70.0391C112.444 71.4336 112.444 72.5182 112.488 73.293C112.533 74.2227 112.599 74.8978 112.688 75.3184C112.82 75.6947 113.031 76.1152 113.318 76.5801C113.562 76.9785 113.894 77.4544 114.314 78.0078C114.757 78.5391 115.322 79.1367 116.008 79.8008C115.521 79.8008 115.012 79.8008 114.48 79.8008C113.949 79.8008 113.462 79.8118 113.02 79.834C112.488 79.8561 111.968 79.8672 111.459 79.8672C110.928 79.8893 110.308 79.9225 109.6 79.9668C108.98 80.0111 108.238 80.0553 107.375 80.0996C106.512 80.1439 105.516 80.2214 104.387 80.332C104.874 80.0221 105.272 79.7233 105.582 79.4355C105.892 79.1257 106.135 78.849 106.312 78.6055C106.534 78.3177 106.7 78.0299 106.811 77.7422C106.877 77.5651 106.932 77.1777 106.977 76.5801C107.043 75.9824 107.098 75.252 107.143 74.3887C107.209 73.5254 107.253 72.5625 107.275 71.5C107.32 70.4375 107.353 69.3639 107.375 68.2793C107.419 67.1725 107.452 66.099 107.475 65.0586C107.497 63.9961 107.508 63.0443 107.508 62.2031C107.53 61.3398 107.541 60.6204 107.541 60.0449C107.541 59.4694 107.541 59.1042 107.541 58.9492C107.475 58.6172 107.375 58.2852 107.242 57.9531C107.132 57.6654 106.954 57.3665 106.711 57.0566C106.467 56.7467 106.146 56.459 105.748 56.1934ZM135.365 66.5527C135.476 66.4199 135.542 66.1764 135.564 65.8223C135.609 65.446 135.697 65.0254 135.83 64.5605C135.985 64.0957 136.24 63.6087 136.594 63.0996C136.948 62.5905 137.523 62.1146 138.32 61.6719C139.095 61.2292 139.848 60.9635 140.578 60.875C141.309 60.7865 142.006 60.8197 142.67 60.9746C143.334 61.1296 143.954 61.373 144.529 61.7051C145.127 62.0371 145.669 62.4023 146.156 62.8008C146.488 63.0664 146.754 63.4538 146.953 63.9629C147.152 64.4499 147.307 65.0033 147.418 65.623C147.529 66.2428 147.606 66.8958 147.65 67.582C147.717 68.2461 147.761 68.8991 147.783 69.541C147.805 70.1608 147.816 70.7363 147.816 71.2676C147.839 71.7767 147.883 72.1973 147.949 72.5293C148.038 73.0163 148.193 73.4368 148.414 73.791C148.635 74.123 148.879 74.4108 149.145 74.6543C149.41 74.8757 149.676 75.0527 149.941 75.1855C150.207 75.3184 150.439 75.418 150.639 75.4844C150.771 75.5508 150.893 75.5951 151.004 75.6172C151.225 75.7057 151.38 75.7057 151.469 75.6172C151.336 75.9271 151.214 76.1927 151.104 76.4141C150.993 76.6354 150.904 76.8236 150.838 76.9785C150.749 77.1556 150.672 77.2995 150.605 77.4102C150.539 77.543 150.462 77.6647 150.373 77.7754C150.307 77.8861 150.218 78.0078 150.107 78.1406C149.997 78.2734 149.886 78.4173 149.775 78.5723C149.488 78.4616 149.211 78.3288 148.945 78.1738C148.702 78.0189 148.48 77.875 148.281 77.7422C148.038 77.5872 147.816 77.4323 147.617 77.2773C147.418 77.1224 147.23 76.9453 147.053 76.7461C146.898 76.569 146.732 76.3809 146.555 76.1816C146.4 75.9824 146.267 75.7611 146.156 75.5176C146.023 75.8053 145.702 76.2148 145.193 76.7461C144.706 77.2773 144.064 77.7643 143.268 78.207C142.471 78.6276 141.541 78.9264 140.479 79.1035C139.438 79.2806 138.287 79.1589 137.025 78.7383C136.472 78.5612 135.952 78.3066 135.465 77.9746C134.978 77.6204 134.557 77.1999 134.203 76.7129C133.871 76.2259 133.628 75.6725 133.473 75.0527C133.34 74.4108 133.351 73.7025 133.506 72.9277C133.661 72.153 133.938 71.5 134.336 70.9688C134.734 70.4375 135.21 70.0059 135.764 69.6738C136.317 69.3418 136.937 69.0872 137.623 68.9102C138.309 68.7331 139.018 68.6113 139.748 68.5449C140.324 68.5228 140.899 68.556 141.475 68.6445C141.962 68.7331 142.471 68.8991 143.002 69.1426C143.533 69.3639 143.987 69.707 144.363 70.1719C144.341 68.9987 144.297 68.069 144.23 67.3828C144.186 66.6745 144.142 66.1322 144.098 65.7559C144.009 65.3132 143.932 65.0033 143.865 64.8262C143.755 64.6712 143.633 64.4941 143.5 64.2949C143.389 64.0957 143.245 63.9186 143.068 63.7637C142.891 63.5866 142.67 63.4427 142.404 63.332C142.139 63.2214 141.829 63.1771 141.475 63.1992C141.098 63.2214 140.799 63.321 140.578 63.498C140.357 63.6751 140.18 63.8854 140.047 64.1289C139.936 64.3503 139.87 64.5938 139.848 64.8594C139.826 65.125 139.837 65.3574 139.881 65.5566C139.925 65.6895 139.992 65.8333 140.08 65.9883C140.169 66.1211 140.29 66.265 140.445 66.4199C140.6 66.5749 140.811 66.7077 141.076 66.8184C140.567 66.8848 140.113 66.9401 139.715 66.9844C139.316 67.0065 138.973 67.0397 138.686 67.084C138.354 67.1283 138.066 67.1615 137.822 67.1836C137.579 67.2057 137.291 67.25 136.959 67.3164C136.671 67.3607 136.317 67.416 135.896 67.4824C135.476 67.5488 134.989 67.6374 134.436 67.748C134.568 67.5931 134.69 67.4492 134.801 67.3164C134.911 67.1615 135.011 67.0286 135.1 66.918C135.188 66.7852 135.277 66.6634 135.365 66.5527ZM140.346 70.5039C139.947 70.526 139.549 70.6257 139.15 70.8027C138.752 70.9577 138.398 71.1901 138.088 71.5C137.778 71.7878 137.512 72.1309 137.291 72.5293C137.092 72.9056 136.992 73.3262 136.992 73.791C136.992 74.2559 137.103 74.6654 137.324 75.0195C137.568 75.3516 137.878 75.6283 138.254 75.8496C138.652 76.071 139.073 76.2038 139.516 76.248C139.98 76.2923 140.434 76.248 140.877 76.1152C141.298 75.9603 141.696 75.7168 142.072 75.3848C142.449 75.0306 142.77 74.6543 143.035 74.2559C143.301 73.8353 143.489 73.4258 143.6 73.0273C143.71 72.6068 143.721 72.2637 143.633 71.998C143.456 71.4225 143.057 71.0241 142.438 70.8027C141.818 70.5592 141.12 70.4596 140.346 70.5039ZM150.738 59.082C151.402 59.1484 151.956 59.2038 152.398 59.248C152.863 59.2923 153.24 59.3255 153.527 59.3477C153.859 59.3698 154.125 59.3809 154.324 59.3809C154.523 59.403 154.789 59.403 155.121 59.3809C155.409 59.3587 155.785 59.3366 156.25 59.3145C156.715 59.2702 157.301 59.2038 158.01 59.1152C157.855 59.3366 157.733 59.5358 157.645 59.7129C157.556 59.8678 157.479 60.0117 157.412 60.1445L157.213 60.543C157.169 60.6758 157.124 60.8086 157.08 60.9414C157.036 61.0521 156.992 61.1849 156.947 61.3398C156.925 61.4948 156.903 61.6608 156.881 61.8379H161.994L161.529 64.5273L156.848 64.2617C156.737 65.3906 156.66 66.265 156.615 66.8848C156.571 67.5046 156.527 67.9583 156.482 68.2461L156.416 68.8438C156.35 69.6849 156.283 70.6035 156.217 71.5996C156.15 72.5736 156.128 73.4811 156.15 74.3223C156.173 75.1634 156.25 75.8717 156.383 76.4473C156.516 77.0007 156.748 77.2773 157.08 77.2773C157.412 77.2773 157.722 77.1888 158.01 77.0117C158.298 76.8346 158.541 76.6243 158.74 76.3809C158.962 76.1374 159.128 75.8939 159.238 75.6504C159.349 75.3848 159.404 75.1855 159.404 75.0527C159.404 74.9199 159.371 74.765 159.305 74.5879C159.194 74.2559 158.995 73.8353 158.707 73.3262C159.349 73.4811 159.913 73.6361 160.4 73.791C160.644 73.8796 160.865 73.9681 161.064 74.0566C161.286 74.1452 161.54 74.2448 161.828 74.3555C162.072 74.4661 162.382 74.599 162.758 74.7539C163.134 74.9089 163.577 75.097 164.086 75.3184C163.599 75.4069 163.245 75.5508 163.023 75.75C162.891 75.8385 162.791 75.9382 162.725 76.0488C162.57 76.2923 162.393 76.6243 162.193 77.0449C161.994 77.4434 161.695 77.8418 161.297 78.2402C160.898 78.6387 160.356 78.9928 159.67 79.3027C159.006 79.6126 158.109 79.7897 156.98 79.834C155.807 79.8783 154.911 79.679 154.291 79.2363C153.693 78.7936 153.251 78.2845 152.963 77.709C152.697 77.1113 152.542 76.5247 152.498 75.9492C152.454 75.3737 152.421 74.9863 152.398 74.7871C152.376 74.5879 152.376 74.0898 152.398 73.293C152.421 72.4961 152.454 71.6217 152.498 70.6699C152.542 69.696 152.587 68.7663 152.631 67.8809C152.675 66.9733 152.697 66.3092 152.697 65.8887C152.697 65.6673 152.708 65.4349 152.73 65.1914C152.73 64.9922 152.73 64.7819 152.73 64.5605C152.753 64.3171 152.764 64.0846 152.764 63.8633L147.949 63.8301L147.75 61.9375L152.598 62.0703C152.553 61.8268 152.498 61.6055 152.432 61.4062C152.387 61.1849 152.343 61.0078 152.299 60.875C152.232 60.7201 152.166 60.5872 152.1 60.4766C152.011 60.3659 151.911 60.2441 151.801 60.1113C151.69 60.0007 151.546 59.8568 151.369 59.6797C151.192 59.5026 150.982 59.3034 150.738 59.082ZM162.393 64.0957C162.813 64.1178 163.189 64.1289 163.521 64.1289C163.876 64.1068 164.174 64.0846 164.418 64.0625C164.706 64.0404 164.96 64.0182 165.182 63.9961C165.514 63.9518 165.857 63.8965 166.211 63.8301C166.521 63.7858 166.842 63.7305 167.174 63.6641C167.528 63.5755 167.871 63.4759 168.203 63.3652C168.07 63.6973 167.96 63.985 167.871 64.2285C167.783 64.472 167.716 64.6823 167.672 64.8594C167.605 65.0586 167.572 65.2246 167.572 65.3574C167.55 65.5124 167.539 65.7005 167.539 65.9219C167.517 66.2982 167.517 66.9069 167.539 67.748C168.69 66.752 169.653 65.9772 170.428 65.4238C171.225 64.8704 171.855 64.4388 172.32 64.1289C172.874 63.7747 173.305 63.5423 173.615 63.4316C174.434 63.2988 175.154 63.487 175.773 63.9961C176.039 64.2174 176.294 64.5163 176.537 64.8926C176.781 65.2467 176.991 65.7227 177.168 66.3203C177.345 66.918 177.478 67.6374 177.566 68.4785C177.655 69.2975 177.666 70.2826 177.6 71.4336C177.135 71.4779 176.714 71.5221 176.338 71.5664C175.984 71.6107 175.685 71.6439 175.441 71.666C175.154 71.7103 174.888 71.7324 174.645 71.7324L173.748 71.832C173.438 71.8763 173.051 71.9206 172.586 71.9648C172.143 71.987 171.601 72.0312 170.959 72.0977C171.889 71.3451 172.486 70.6921 172.752 70.1387C173.04 69.5632 173.161 69.0872 173.117 68.7109C173.073 68.2904 172.874 67.9251 172.52 67.6152C172.099 67.3717 171.645 67.2832 171.158 67.3496C170.738 67.3939 170.251 67.582 169.697 67.9141C169.144 68.2461 168.557 68.8659 167.938 69.7734C167.982 71.1901 168.026 72.3633 168.07 73.293C168.137 74.2227 168.192 74.9753 168.236 75.5508C168.303 76.2148 168.358 76.735 168.402 77.1113C168.469 77.4434 168.602 77.7975 168.801 78.1738C168.956 78.4837 169.177 78.8268 169.465 79.2031C169.753 79.5794 170.129 79.9557 170.594 80.332C169.62 80.2878 168.823 80.2878 168.203 80.332C167.827 80.3542 167.495 80.3763 167.207 80.3984C166.897 80.4427 166.565 80.487 166.211 80.5312C165.901 80.5755 165.536 80.6198 165.115 80.6641C164.717 80.7305 164.274 80.7969 163.787 80.8633C163.964 80.6198 164.108 80.332 164.219 80C164.329 79.6901 164.418 79.3913 164.484 79.1035C164.573 78.7715 164.639 78.4284 164.684 78.0742C164.706 77.7643 164.717 77.2995 164.717 76.6797C164.739 76.0599 164.728 75.3626 164.684 74.5879C164.661 73.791 164.628 72.972 164.584 72.1309C164.54 71.2676 164.484 70.4596 164.418 69.707C164.352 68.9544 164.274 68.3014 164.186 67.748C164.119 67.1725 164.042 66.7741 163.953 66.5527C163.842 66.2871 163.71 66.0215 163.555 65.7559C163.422 65.5124 163.256 65.2578 163.057 64.9922C162.857 64.7044 162.636 64.4056 162.393 64.0957ZM178.994 65.1582L185.104 65.2246C184.749 66.5749 184.484 67.7259 184.307 68.6777C184.152 69.6296 184.052 70.4264 184.008 71.0684C183.919 71.7988 183.897 72.4186 183.941 72.9277C184.008 73.3926 184.118 73.8906 184.273 74.4219C184.406 74.8646 184.605 75.3737 184.871 75.9492C185.137 76.5247 185.491 77.1003 185.934 77.6758C185.668 77.5872 185.38 77.5208 185.07 77.4766C184.76 77.4323 184.473 77.3991 184.207 77.377C183.897 77.3548 183.587 77.3548 183.277 77.377C182.967 77.3991 182.624 77.4323 182.248 77.4766C181.938 77.5208 181.562 77.5762 181.119 77.6426C180.676 77.709 180.212 77.7975 179.725 77.9082C180.057 76.9121 180.311 76.0488 180.488 75.3184C180.688 74.5879 180.831 73.9792 180.92 73.4922C181.008 72.9167 181.064 72.4518 181.086 72.0977C181.086 71.6549 181.086 71.1569 181.086 70.6035C181.086 70.028 181.086 69.4746 181.086 68.9434C181.086 68.4121 181.075 67.9473 181.053 67.5488C181.031 67.1283 180.986 66.8626 180.92 66.752L180.588 66.4199C180.455 66.3092 180.256 66.1543 179.99 65.9551C179.747 65.7337 179.415 65.4681 178.994 65.1582ZM181.352 60.0449C181.816 59.8014 182.281 59.735 182.746 59.8457C183.233 59.9564 183.609 60.1667 183.875 60.4766C184.141 60.7865 184.229 61.1517 184.141 61.5723C184.074 61.9928 183.72 62.4023 183.078 62.8008C182.436 63.1771 181.872 63.3099 181.385 63.1992C180.898 63.0885 180.555 62.8561 180.355 62.502C180.156 62.1478 180.123 61.7383 180.256 61.2734C180.389 60.7865 180.754 60.377 181.352 60.0449ZM186.963 64.2617C187.472 64.2174 187.904 64.1732 188.258 64.1289C188.634 64.0846 188.944 64.0404 189.188 63.9961C189.475 63.9518 189.719 63.9076 189.918 63.8633C190.117 63.8411 190.339 63.7969 190.582 63.7305C190.803 63.6862 191.047 63.6309 191.312 63.5645C191.6 63.4759 191.91 63.3763 192.242 63.2656L192.043 67.4824C192.53 66.7077 193.094 66.1211 193.736 65.7227C194.378 65.3021 194.987 64.9922 195.562 64.793C196.249 64.5495 196.935 64.4056 197.621 64.3613C198.329 64.3835 198.982 64.4941 199.58 64.6934C200.089 64.8704 200.598 65.1471 201.107 65.5234C201.639 65.8997 202.048 66.4531 202.336 67.1836C203.089 66.4089 203.83 65.8112 204.561 65.3906C205.313 64.9479 205.977 64.6159 206.553 64.3945C207.239 64.151 207.881 64.0072 208.479 63.9629C209.275 63.9408 210.006 64.0736 210.67 64.3613C211.356 64.6491 211.954 65.0143 212.463 65.457C212.972 65.8776 213.382 66.3314 213.691 66.8184C214.001 67.2832 214.178 67.6927 214.223 68.0469C214.289 68.5339 214.256 69.1647 214.123 69.9395C213.99 70.6921 213.835 71.4668 213.658 72.2637C213.481 73.0384 213.315 73.7578 213.16 74.4219C213.027 75.0638 212.972 75.5176 212.994 75.7832C213.061 76.0046 213.215 76.2702 213.459 76.5801C213.68 76.8457 214.001 77.1777 214.422 77.5762C214.865 77.9525 215.495 78.3952 216.314 78.9043C215.606 78.8822 214.975 78.86 214.422 78.8379C213.891 78.8158 213.437 78.7826 213.061 78.7383C212.618 78.694 212.23 78.6608 211.898 78.6387C211.633 78.6387 211.312 78.6165 210.936 78.5723C210.626 78.5501 210.216 78.5169 209.707 78.4727C209.22 78.4284 208.656 78.3841 208.014 78.3398C208.257 78.2734 208.456 78.1517 208.611 77.9746C208.766 77.7754 208.899 77.5872 209.01 77.4102C209.12 77.1888 209.209 76.9453 209.275 76.6797C209.32 76.4583 209.364 76.1042 209.408 75.6172C209.452 75.1302 209.486 74.5768 209.508 73.957C209.552 73.3372 209.574 72.6842 209.574 71.998C209.596 71.3118 209.596 70.6589 209.574 70.0391C209.552 69.4193 209.508 68.8548 209.441 68.3457C209.375 67.8366 209.286 67.4492 209.176 67.1836C209.087 66.9844 208.932 66.8294 208.711 66.7188C208.49 66.5859 208.235 66.5085 207.947 66.4863C207.66 66.4421 207.372 66.4531 207.084 66.5195C206.796 66.5638 206.542 66.6523 206.32 66.7852C206.121 66.9401 205.855 67.1504 205.523 67.416C205.236 67.6595 204.859 67.9915 204.395 68.4121C203.93 68.8327 203.343 69.3639 202.635 70.0059C202.568 71.4004 202.513 72.5293 202.469 73.3926C202.447 74.2337 202.424 74.8757 202.402 75.3184C202.38 75.8496 202.369 76.2148 202.369 76.4141C202.347 76.5911 202.358 76.7572 202.402 76.9121C202.447 77.2441 202.579 77.554 202.801 77.8418C202.535 77.7754 202.247 77.7311 201.938 77.709C201.65 77.6868 201.384 77.6647 201.141 77.6426C200.853 77.6204 200.565 77.6094 200.277 77.6094C200.034 77.6094 199.768 77.6204 199.48 77.6426C199.237 77.6647 198.938 77.6979 198.584 77.7422C198.23 77.7643 197.842 77.7975 197.422 77.8418C197.599 77.7311 197.743 77.5983 197.854 77.4434C197.964 77.2884 198.053 77.1445 198.119 77.0117C198.208 76.8568 198.274 76.7129 198.318 76.5801C198.34 76.4473 198.385 76.1263 198.451 75.6172C198.518 75.0859 198.562 74.4661 198.584 73.7578C198.606 73.0495 198.606 72.3079 198.584 71.5332C198.562 70.7363 198.484 70.0169 198.352 69.375C198.219 68.7109 198.008 68.1686 197.721 67.748C197.455 67.3275 197.101 67.1393 196.658 67.1836C196.127 67.2279 195.585 67.3607 195.031 67.582C194.566 67.7591 194.068 68.0247 193.537 68.3789C193.006 68.7331 192.508 69.209 192.043 69.8066C191.954 71.4668 191.899 72.7839 191.877 73.7578C191.877 74.7318 191.888 75.4733 191.91 75.9824C191.932 76.5801 191.954 76.9896 191.977 77.2109C191.999 77.3659 192.054 77.5208 192.143 77.6758C192.209 77.8086 192.286 77.9635 192.375 78.1406C192.486 78.3177 192.607 78.4837 192.74 78.6387L187.461 78.373C187.638 78.2845 187.793 78.1738 187.926 78.041C188.059 77.8861 188.169 77.7311 188.258 77.5762C188.346 77.3991 188.435 77.222 188.523 77.0449C188.59 76.89 188.645 76.5247 188.689 75.9492C188.756 75.3737 188.811 74.6986 188.855 73.9238C188.9 73.127 188.933 72.2969 188.955 71.4336C188.999 70.5482 189.021 69.7292 189.021 68.9766C189.044 68.2018 189.055 67.5488 189.055 67.0176C189.055 66.4642 189.044 66.1322 189.021 66.0215C188.955 65.8001 188.833 65.5677 188.656 65.3242C188.501 65.1471 188.291 64.959 188.025 64.7598C187.76 64.5384 187.406 64.3724 186.963 64.2617ZM225.379 65.125C225.954 65.125 226.552 65.2357 227.172 65.457C227.792 65.6562 228.389 65.9219 228.965 66.2539C229.54 66.5638 230.061 66.9069 230.525 67.2832C231.012 67.6374 231.411 67.9805 231.721 68.3125C232.274 68.9102 232.65 69.7181 232.85 70.7363C233.071 71.7324 233.115 72.7617 232.982 73.8242C232.85 74.8646 232.54 75.8496 232.053 76.7793C231.566 77.709 230.891 78.3952 230.027 78.8379C229.408 79.1478 228.799 79.3913 228.201 79.5684C227.604 79.7454 227.028 79.8783 226.475 79.9668C225.921 80.0553 225.401 80.0996 224.914 80.0996C224.427 80.0996 224.007 80.0885 223.652 80.0664C222.988 80.0221 222.291 79.7897 221.561 79.3691C220.852 78.9486 220.177 78.4284 219.535 77.8086C218.915 77.1888 218.384 76.5137 217.941 75.7832C217.499 75.0306 217.233 74.3223 217.145 73.6582C217.012 72.7507 216.99 71.7988 217.078 70.8027C217.167 69.8066 217.488 68.888 218.041 68.0469C218.617 67.2057 219.48 66.5085 220.631 65.9551C221.804 65.4017 223.387 65.125 225.379 65.125ZM224.283 78.0078C224.527 78.0521 224.859 77.9967 225.279 77.8418C225.7 77.6647 226.109 77.388 226.508 77.0117C226.928 76.6354 227.294 76.1595 227.604 75.584C227.936 74.9863 228.135 74.2669 228.201 73.4258C228.268 72.6068 228.268 71.8542 228.201 71.168C228.157 70.4818 228.057 69.8841 227.902 69.375C227.747 68.8438 227.57 68.4121 227.371 68.0801C227.172 67.748 226.962 67.5156 226.74 67.3828C226.364 67.1836 225.91 67.0286 225.379 66.918C224.848 66.7852 224.394 66.8073 224.018 66.9844C223.84 67.0729 223.619 67.2611 223.354 67.5488C223.088 67.8366 222.822 68.2018 222.557 68.6445C222.291 69.0651 222.048 69.5521 221.826 70.1055C221.627 70.6589 221.483 71.2344 221.395 71.832C221.306 72.4297 221.284 73.0716 221.328 73.7578C221.395 74.444 221.538 75.097 221.76 75.7168C221.981 76.3145 222.291 76.8346 222.689 77.2773C223.11 77.6979 223.641 77.9414 224.283 78.0078ZM235.605 76.3477C235.76 75.6172 235.871 74.9753 235.938 74.4219C236.026 73.8464 236.092 73.3704 236.137 72.9941C236.181 72.5514 236.203 72.1751 236.203 71.8652C236.181 71.4889 236.159 71.0462 236.137 70.5371C236.137 70.0059 236.115 69.4857 236.07 68.9766C236.048 68.4453 236.015 67.9805 235.971 67.582C235.926 67.1615 235.871 66.8626 235.805 66.6855C235.716 66.5085 235.594 66.3203 235.439 66.1211C235.13 65.7448 234.676 65.3796 234.078 65.0254C234.587 64.9147 235.019 64.8262 235.373 64.7598C235.749 64.6712 236.059 64.5938 236.303 64.5273C236.568 64.4388 236.801 64.3613 237 64.2949C237.177 64.2285 237.387 64.1621 237.631 64.0957C237.83 64.0514 238.074 63.9961 238.361 63.9297C238.649 63.8633 238.981 63.7858 239.357 63.6973L239.258 66.7188C239.966 65.8776 240.686 65.2467 241.416 64.8262C242.146 64.4056 242.833 64.1068 243.475 63.9297C244.205 63.7083 244.924 63.5977 245.633 63.5977C246.518 63.6419 247.337 63.7858 248.09 64.0293C248.865 64.2728 249.529 64.5605 250.082 64.8926C250.658 65.2025 251.122 65.5345 251.477 65.8887C251.831 66.2428 252.041 66.5527 252.107 66.8184C252.373 67.6816 252.439 68.4785 252.307 69.209C252.174 69.9173 251.997 70.6146 251.775 71.3008C251.576 71.9648 251.399 72.6289 251.244 73.293C251.111 73.957 251.167 74.6764 251.41 75.4512C251.499 75.6504 251.587 75.8496 251.676 76.0488C251.764 76.2259 251.875 76.403 252.008 76.5801C252.141 76.7572 252.296 76.901 252.473 77.0117C252.229 76.9896 251.986 76.9785 251.742 76.9785C251.499 76.9564 251.277 76.9342 251.078 76.9121C250.835 76.89 250.613 76.8678 250.414 76.8457C250.193 76.8236 249.894 76.8125 249.518 76.8125C248.876 76.8125 247.88 76.8457 246.529 76.9121C246.729 76.4473 246.883 76.0599 246.994 75.75C247.127 75.418 247.238 75.1523 247.326 74.9531C247.415 74.7096 247.481 74.5215 247.525 74.3887C247.791 73.7467 247.946 73.0163 247.99 72.1973C248.057 71.3783 248.001 70.5482 247.824 69.707C247.758 69.4193 247.647 69.0762 247.492 68.6777C247.337 68.2793 247.127 67.8919 246.861 67.5156C246.618 67.1393 246.319 66.8184 245.965 66.5527C245.633 66.2871 245.245 66.1322 244.803 66.0879C244.36 66.0436 243.862 66.1543 243.309 66.4199C242.777 66.6855 242.202 67.1725 241.582 67.8809C241.117 68.4785 240.752 69.209 240.486 70.0723C240.243 70.8027 240.077 71.7214 239.988 72.8281C239.9 73.9128 240.033 75.1855 240.387 76.6465C240.077 76.6022 239.789 76.5801 239.523 76.5801C239.258 76.5579 239.036 76.5358 238.859 76.5137C238.638 76.4915 238.439 76.4694 238.262 76.4473C238.062 76.4473 237.841 76.4362 237.598 76.4141C237.376 76.4141 237.1 76.4141 236.768 76.4141C236.436 76.3919 236.048 76.3698 235.605 76.3477ZM252.805 63.0332C253.247 63.0996 253.646 63.1549 254 63.1992C254.332 63.2214 254.631 63.2435 254.896 63.2656C255.184 63.2878 255.461 63.2988 255.727 63.2988C255.97 63.2988 256.28 63.2878 256.656 63.2656C256.966 63.2435 257.365 63.2214 257.852 63.1992C258.361 63.1549 258.958 63.0996 259.645 63.0332C259.6 63.1217 259.512 63.3984 259.379 63.8633C259.246 64.306 259.113 64.8594 258.98 65.5234C258.848 66.1654 258.726 66.8848 258.615 67.6816C258.527 68.4564 258.482 69.2311 258.482 70.0059C258.505 70.7585 258.604 71.4779 258.781 72.1641C258.958 72.8281 259.246 73.3704 259.645 73.791C260.486 74.6543 261.227 75.1745 261.869 75.3516C262.533 75.5286 263.109 75.5065 263.596 75.2852C264.083 75.0638 264.481 74.7318 264.791 74.2891C265.101 73.8464 265.322 73.4368 265.455 73.0605C265.787 72.0423 265.986 70.9688 266.053 69.8398C266.097 68.8659 266.02 67.7812 265.82 66.5859C265.621 65.3906 265.145 64.1732 264.393 62.9336C264.968 62.9779 265.466 63.0111 265.887 63.0332C266.307 63.0553 266.673 63.0775 266.982 63.0996C267.337 63.1217 267.646 63.1439 267.912 63.166C268.156 63.1882 268.443 63.1882 268.775 63.166C269.063 63.166 269.406 63.1549 269.805 63.1328C270.225 63.0885 270.69 63.0443 271.199 63C271.288 65.1693 271.365 67.1061 271.432 68.8105C271.498 70.4928 271.542 71.987 271.564 73.293C271.609 74.5768 271.631 75.6947 271.631 76.6465C271.631 77.5762 271.631 78.362 271.631 79.0039C271.609 80.5312 271.542 81.5384 271.432 82.0254C271.255 82.7116 270.934 83.3978 270.469 84.084C270.026 84.7702 269.462 85.3789 268.775 85.9102C268.089 86.4635 267.292 86.8841 266.385 87.1719C265.499 87.4818 264.525 87.5924 263.463 87.5039C262.423 87.4154 261.592 87.2715 260.973 87.0723C260.375 86.8952 259.899 86.6849 259.545 86.4414C259.213 86.1979 258.969 85.9434 258.814 85.6777C258.682 85.4121 258.582 85.1354 258.516 84.8477C258.449 84.582 258.383 84.3275 258.316 84.084C258.25 83.8405 258.117 83.6302 257.918 83.4531C257.674 83.2539 257.42 83.0547 257.154 82.8555C256.911 82.6784 256.645 82.5013 256.357 82.3242C256.092 82.1471 255.826 82.0033 255.561 81.8926L262.633 81.4941C262.434 81.7598 262.29 82.0033 262.201 82.2246C262.113 82.446 262.057 82.6341 262.035 82.7891C262.013 82.9883 262.024 83.1543 262.068 83.2871C262.157 83.5527 262.312 83.8405 262.533 84.1504C262.777 84.4824 263.087 84.737 263.463 84.9141C263.839 85.1133 264.282 85.1797 264.791 85.1133C265.322 85.0469 265.92 84.7702 266.584 84.2832C267.137 83.8626 267.602 83.1875 267.979 82.2578C268.288 81.4609 268.532 80.3431 268.709 78.9043C268.886 77.4655 268.853 75.5729 268.609 73.2266C268.211 74.599 267.669 75.6504 266.982 76.3809C266.296 77.1113 265.61 77.6426 264.924 77.9746C264.127 78.373 263.297 78.5833 262.434 78.6055C261.283 78.5612 260.298 78.4173 259.479 78.1738C258.66 77.9082 257.984 77.554 257.453 77.1113C256.922 76.6686 256.501 76.1484 256.191 75.5508C255.904 74.931 255.693 74.2448 255.561 73.4922C255.428 72.7396 255.361 71.987 255.361 71.2344C255.361 70.4596 255.361 69.7402 255.361 69.0762C255.383 68.4121 255.395 67.8145 255.395 67.2832C255.395 66.7298 255.339 66.2871 255.229 65.9551C255.096 65.623 254.919 65.291 254.697 64.959C254.52 64.6712 254.277 64.3613 253.967 64.0293C253.635 63.6751 253.247 63.3431 252.805 63.0332Z" fill="#444444"/>
</svg>
