<svg width="24" height="24" viewBox="0 0 24 24" fill="none" xmlns="http://www.w3.org/2000/svg">
<g clip-path="url(#clip0_23_1317)">
<path d="M3 3L21 21" stroke="white" stroke-width="1.5" stroke-linecap="round" stroke-linejoin="round"/>
<path d="M17.9999 14L19.4999 12.572C19.9909 12.0898 20.377 11.5115 20.6341 10.8733C20.8912 10.235 21.0138 9.55053 20.9943 8.86271C20.9747 8.17488 20.8134 7.4985 20.5204 6.87589C20.2274 6.25328 19.809 5.69785 19.2915 5.24436C18.774 4.79087 18.1684 4.44909 17.5127 4.24039C16.857 4.0317 16.1653 3.96059 15.4809 4.03152C14.7964 4.10245 14.134 4.31389 13.535 4.65261C12.9361 4.99132 12.4135 5.45002 11.9999 6C11.0499 4.727 9.55994 4 7.99994 4M15.9999 16L11.9999 20L4.49994 12.572C3.83843 11.9284 3.36795 11.1143 3.14062 10.2198C2.91329 9.3253 2.93798 8.38533 3.21194 7.504C3.52845 6.5014 4.15438 5.62482 4.99994 5" stroke="white" stroke-width="1.5" stroke-linecap="round" stroke-linejoin="round"/>
</g>
<defs>
<clipPath id="clip0_23_1317">
<rect width="24" height="24" fill="white"/>
</clipPath>
</defs>
</svg>
